<svg width="27.36" height="20.99" version="1.1" viewBox="0 0 27.36 20.99" xmlns="http://www.w3.org/2000/svg">
 <path d="m16.74 0.01198c-0.2407-0.03824-0.496 0.01468-0.707 0.1641-0.424 0.3016-0.5274 0.9065-0.2207 1.328l3.467 4.854h-11.2l3.469-4.855-0.0039 0.00195c0.3067-0.4216 0.2052-1.027-0.2188-1.328h-2e-3v-0.001953c-0.211-0.1488-0.4662-0.1985-0.707-0.1602-0.2408 0.03833-0.4664 0.165-0.6191 0.375l-2e-3 0.001953-4.262 5.967h-4.781c-0.5287 0-0.9551 0.4331-0.9551 0.9551 0 0.5212 0.4385 0.9531 0.9551 0.9531h0.1855l2.984 10.66 0.00195 2e-3v2e-3c0.3561 1.297 1.635 2.064 3.191 2.064h13.38c0.5166 0 0.9531-0.4338 0.9531-0.9551 0-0.06904-0.02496-0.1302-0.03906-0.1953 0.02517 0.01205 0.04714 0.02701 0.07422 0.03711 0.2805 0.1046 0.622 0.02131 0.8438-0.168 0.2207-0.1884 0.3606-0.4534 0.4512-0.7832l2.986-10.66h0.4434c0.5166 0 0.9551-0.432 0.9551-0.9531 0-0.5219-0.4264-0.9551-0.9551-0.9551h-4.779l-4.262-5.967-2e-3 -0.001953c-0.153-0.2092-0.3804-0.3387-0.621-0.377zm-13.62 8.254h20.86l-2.844 10.16h-2e-3c-0.07275 0.2668-0.07301 0.5352-0.01563 0.7754-0.1302-0.06707-0.2708-0.1152-0.4277-0.1152h-13.38c-0.2534 0-0.5944-0.03549-0.8535-0.1406-0.2591-0.1052-0.4196-0.2317-0.498-0.5195h-0.00195z"/>
</svg>
