<svg width="29.2" height="24.2" version="1.1" viewBox="0 0 29.2 24.2" xmlns="http://www.w3.org/2000/svg">
 <path d="m14.55 2.724e-4 -11 1c-0.2303 0.0204-0.4273 0.1705-0.5078 0.3867l-3 8c-0.06969 0.1851-0.04165 0.3913 0.06836 0.5527 0.1125 0.1616 0.2971 0.2598 0.4941 0.2598h1.4v10.4c0 0.2749 0.1873 0.5159 0.4551 0.582l12 3c0.04806 0.01287 0.09758 0.01953 0.1445 0.01953 0.04695 0 0.09647-0.0067 0.1445-0.01953l12-3c0.2665-0.0661 0.4551-0.3069 0.4551-0.582v-10.4h1.4c0.1972 0 0.3817-0.09836 0.4941-0.2598 0.1115-0.162 0.1359-0.368 0.06641-0.5527l-3-8c-0.0804-0.2161-0.2765-0.3663-0.5059-0.3867l-11-1c-0.01882-0.001973-0.03599 0.007887-0.05469 0.007813-0.01895 1.32e-4 -0.03552-0.009842-0.05469-0.007813zm-0.8066 1.279-2.57 7.719h-9.703l2.564-6.838zm1.721 0 9.709 0.8809 2.566 6.838h-9.703zm-1.459 3.018v18.53l-10.8-2.699v-9.932h8.4c0.2571 0 0.4868-0.1673 0.5684-0.4121zm1.199 0 1.83 5.49c0.0817 0.2449 0.3124 0.4121 0.5703 0.4121h8.4v9.932l-10.8 2.699z"/>
</svg>
