<svg width="30.2" height="20.2" version="1.1" viewBox="0 0 30.2 20.2" xmlns="http://www.w3.org/2000/svg">
 <path d="m3.1 0c-1.709 0-3.1 1.39-3.1 3.1v14c0 1.709 1.39 3.1 3.1 3.1h24c1.709 0 3.1-1.39 3.1-3.1v-14c0-0.884-0.491-1.659-1.18-2.211-0.6887-0.5515-1.586-0.8887-2.42-0.8887zm0 1.199h23.5c0.5377 0 1.142 0.2219 1.611 0.5762 0.4709 0.3552 0.7891 0.8292 0.7891 1.324v0.9004h-27.8v-0.9004c0-1.049 0.8526-1.9 1.9-1.9zm-1.9 4h27.8v2.801h-27.8zm0 4h27.8v7.9c0 1.048-0.8526 1.9-1.9 1.9h-24c-1.048 0-1.9-0.8526-1.9-1.9zm3.4 3.9c-0.276 0-0.5 0.224-0.5 0.5s0.224 0.5 0.5 0.5h5c0.276 0 0.5-0.224 0.5-0.5s-0.224-0.5-0.5-0.5zm0 2c-0.276 0-0.5 0.224-0.5 0.5s0.224 0.5 0.5 0.5h8c0.276 0 0.5-0.224 0.5-0.5s-0.224-0.5-0.5-0.5z"/>
</svg>
