<svg width="25" height="23.15" version="1.1" viewBox="0 0 25 23.15" xmlns="http://www.w3.org/2000/svg">
 <path d="m0.418 0c-0.2308 0-0.418 0.1912-0.418 0.4258s0.1871 0.4238 0.418 0.4238h2.82l2.588 13.19c0.3379 1.717 1.815 2.963 3.512 2.963h13.24c0.05772 0 0.1121-0.01169 0.1621-0.0332 0.1501-0.06455 0.2559-0.2166 0.2559-0.3926 0-0.2346-0.1871-0.4238-0.418-0.4238h-13.24c-1.301 0-2.431-0.9584-2.691-2.279l-0.1758-0.8945 16.33-1.926c0.67-0.0695 1.181-0.5539 1.273-1.201l0.9258-6.381c0.0165-0.1178-0.02006-0.2389-0.09766-0.3281-0.0785-0.09002-0.1915-0.1406-0.3105-0.1406h-20.08l-0.5215-2.658c-0.03848-0.1989-0.2092-0.3418-0.4082-0.3418zm4.254 3.818h19.44l-0.8594 5.918c-0.038 0.2741-0.2514 0.4689-0.5488 0.5l-16.39 1.938zm4.828 14.03c-1.461 0-2.65 1.189-2.65 2.65s1.189 2.65 2.65 2.65c1.461 0 2.65-1.189 2.65-2.65s-1.189-2.65-2.65-2.65zm11 0c-1.461 0-2.65 1.189-2.65 2.65s1.189 2.65 2.65 2.65 2.65-1.189 2.65-2.65-1.189-2.65-2.65-2.65zm-11 1.133c0.8355 0 1.518 0.6813 1.518 1.518s-0.6821 1.518-1.518 1.518c-0.8363 0-1.518-0.6813-1.518-1.518s0.6813-1.518 1.518-1.518zm11 0c0.8355 0 1.518 0.6813 1.518 1.518s-0.6821 1.518-1.518 1.518c-0.8363 0-1.518-0.6813-1.518-1.518s0.6813-1.518 1.518-1.518z"/>
</svg>
