<svg width="27" height="27" version="1.1" viewBox="0 0 27 27" xmlns="http://www.w3.org/2000/svg">
 <path d="m13.5 0c-7.444 0-13.5 6.056-13.5 13.5 0 7.444 6.056 13.5 13.5 13.5 7.444 0 13.5-6.056 13.5-13.5 0-7.444-6.056-13.5-13.5-13.5zm-0.4648 0.9551v1.373c0 0.257 0.2078 0.4648 0.4648 0.4648 0.2569-1e-7 0.4668-0.2079 0.4668-0.4648v-1.373c6.558 0.2426 11.84 5.522 12.08 12.08h-1.373c-0.2569 0-0.4648 0.2078-0.4648 0.4648 0 0.2569 0.2079 0.4668 0.4648 0.4668h1.373c-0.2426 6.557-5.521 11.84-12.08 12.08v-1.373c0-0.2569-0.2099-0.4648-0.4668-0.4648-0.257 0-0.4648 0.2079-0.4648 0.4648v1.373c-6.558-0.2416-11.84-5.52-12.08-12.08h1.373c0.257 0 0.4648-0.2099 0.4648-0.4668-1e-7 -0.257-0.2079-0.4648-0.4648-0.4648h-1.373c0.2416-6.559 5.521-11.84 12.08-12.08zm0.4648 3.701c-0.257 0-0.4648 0.2079-0.4648 0.4648v6.58c-0.8022 0.2075-1.398 0.9315-1.398 1.797 0 1.026 0.8344 1.863 1.861 1.863 0.3443 0 0.6643-0.0998 0.9414-0.2637l3.385 3.385c0.0912 0.0904 0.2109 0.1367 0.3301 0.1367 0.1191 0 0.2378-0.04632 0.3281-0.1367 0.1825-0.1824 0.1825-0.4757 0-0.6582l-3.385-3.385c0.1639-0.2771 0.2637-0.5971 0.2637-0.9414 0-0.8634-0.5955-1.586-1.395-1.795v-6.582c0-0.257-0.2099-0.4648-0.4668-0.4648zm-0.0059 7.912c0.0021 2.9e-5 0.0037 2e-3 0.0059 2e-3 0.0013 0 0.0026 1.2e-5 0.0039 0 0.511 0.0034 0.9258 0.416 0.9258 0.9277 0 0.5139-0.4177 0.9316-0.9316 0.9316s-0.9297-0.4177-0.9297-0.9316c0-0.5126 0.4137-0.9275 0.9258-0.9297z"/>
</svg>
