<svg width="28" height="18" version="1.1" viewBox="0 0 28 18" xmlns="http://www.w3.org/2000/svg">
 <path d="m1.4 0c-0.3203 1.228e-16 -0.6134 0.108-0.8496 0.2832-0.01041 0.005742-0.01735 0.01688-0.02734 0.02344-0.3166 0.2477-0.5234 0.6201-0.5234 1.043v15.3c-2.961e-16 0.7443 0.6285 1.35 1.4 1.35h25.2c0.7719 0 1.4-0.6053 1.4-1.35v-15.3c0-0.4335-0.2164-0.8153-0.5469-1.063-7.34e-4 -5.488e-4 -0.001218-0.001406-0.001953-0.001953-0.2365-0.1762-0.5303-0.2852-0.8516-0.2852h-25.2zm0.4824 0.9004h24.23l-10.78 7.723-0.207 0.1426c-0.6748 0.4905-1.584 0.4888-2.275-0.009766l-10.97-7.855zm25.18 0.4414c5.4e-5 0.00279 0.001953 0.005011 0.001953 0.007812v15.3c0 0.007598-0.003515 0.01398-0.003906 0.02148l-10.68-7.682 10.69-7.648zm-26.13 0.001953 10.67 7.646-10.67 7.678c-2.667e-4 -0.006208-0.003906-0.01131-0.003906-0.01758v-15.3c0-0.002137 0.001922-0.00373 0.001953-0.005859zm11.46 8.199c0.4884 0.3249 1.046 0.4941 1.604 0.4941 0.5576 0 1.109-0.1692 1.588-0.4922l10.51 7.555h-24.2l10.5-7.557z"/>
</svg>
