<svg width="22.4" height="22.4" version="1.1" viewBox="0 0 22.4 22.4" xmlns="http://www.w3.org/2000/svg">
 <path d="m11.2 0c-6.176 0-11.2 5.024-11.2 11.2 0 6.176 5.024 11.2 11.2 11.2 6.176 0 11.2-5.024 11.2-11.2 0-6.176-5.024-11.2-11.2-11.2zm0 1.158c5.537 0 10.04 4.504 10.04 10.04 0 5.537-4.504 10.04-10.04 10.04-5.537 0-10.04-4.504-10.04-10.04 0-5.537 4.504-10.04 10.04-10.04zm0 3.842c-1.768 0-3.199 1.508-3.199 3.346v0.9258c0 0.3042 0.2419 0.5645 0.5469 0.5645 0.3047 0 0.5469-0.2598 0.5469-0.5645v-0.9258c0-1.23 0.9478-2.219 2.105-2.219s2.105 0.9891 2.105 2.219v0.7012c0 0.5852-0.2278 1.162-0.6191 1.572l-1.1 1.15c-0.6026 0.6327-0.9336 1.475-0.9336 2.363v0.7031c0 0.3042 0.2416 0.5625 0.5469 0.5625s0.5469-0.2583 0.5469-0.5625v-0.7031c0-0.5959 0.2213-1.153 0.6211-1.572l1.098-1.15c0.5953-0.6242 0.9336-1.484 0.9336-2.363v-0.7012c0-1.838-1.431-3.346-3.199-3.346zm0 11c-0.662 0-1.199 0.5377-1.199 1.199 0 0.6625 0.5374 1.199 1.199 1.199s1.199-0.5367 1.199-1.199c0-0.6615-0.5372-1.199-1.199-1.199zm0 1.098c0.0031 0 0.01686 2.71e-4 0.03516 0.01367 0.0103 0.0074 0.02205 0.01991 0.03125 0.03711 0.0094 0.0178 0.01367 0.03588 0.01367 0.05078 0 0.0462-0.03728 0.08008-0.08008 0.08008s-0.08008-0.03388-0.08008-0.08008c0-0.0149 0.0043-0.03298 0.01367-0.05078 0.0092-0.0172 0.02095-0.02971 0.03125-0.03711 0.0183-0.0134 0.03206-0.01367 0.03516-0.01367z"/>
</svg>
