<svg width="24.4" height="24.4" version="1.1" viewBox="0 0 24.4 24.4" xmlns="http://www.w3.org/2000/svg">
 <path d="m8.926 0c-4.923 0-8.926 4.003-8.926 8.926 0 4.923 4.003 8.928 8.926 8.928 2.253 0 4.308-0.8449 5.881-2.227l8.605 8.605c0.1124 0.1113 0.2619 0.168 0.4102 0.168s0.2961-0.05589 0.4082-0.168c0.2248-0.2248 0.2248-0.5974 0-0.8223l-8.605-8.604c1.382-1.573 2.229-3.627 2.229-5.881 0-4.923-4.005-8.926-8.928-8.926zm0 1.23c1.316 0 2.556 0.3312 3.641 0.916 1.289 0.695 2.36 1.748 3.076 3.023 0.6245 1.112 0.9805 2.392 0.9805 3.756 0 2.098-0.8467 4.001-2.213 5.391-0.01799 0.01415-0.04011 0.0205-0.05664 0.03711-0.01663 0.01655-0.02293 0.03862-0.03711 0.05664-1.39 1.366-3.293 2.213-5.391 2.213-4.243 0-7.695-3.454-7.695-7.697 0-4.243 3.452-7.695 7.695-7.695z"/>
</svg>
