<svg width="21" height="30" version="1.1" viewBox="0 0 21 30" xmlns="http://www.w3.org/2000/svg">
 <path d="m10.5 0c-5.79 0-10.5 4.71-10.5 10.5-2.368e-15 10.21 9.753 19.01 10.17 19.38 0.095 0.08 0.213 0.1191 0.332 0.1191s0.237-0.03914 0.332-0.1191c0.415-0.37 10.17-9.171 10.17-19.38 0-5.79-4.71-10.5-10.5-10.5zm0 1c5.238 0 9.5 4.26 9.5 9.5 0 8.73-7.782 16.67-9.5 18.32-1.718-1.65-9.5-9.58-9.5-18.32 0-5.24 4.262-9.5 9.5-9.5zm0 3c-3.36 0-6.133 2.567-6.467 5.838-0.02223 0.218-0.0332 0.4384-0.0332 0.6621 0 3.59 2.916 6.5 6.5 6.5s6.5-2.91 6.5-6.5c0-3.58-2.916-6.5-6.5-6.5zm0 1c3.033 0 5.5 2.47 5.5 5.5 0 3.04-2.467 5.5-5.5 5.5s-5.5-2.46-5.5-5.5c0-0.1894 0.01049-0.376 0.0293-0.5605 0.2821-2.768 2.627-4.939 5.471-4.939z"/>
</svg>
