<svg width="24" height="24" version="1.1" viewBox="0 0 24 24" xmlns="http://www.w3.org/2000/svg">
 <path d="m1.75 1c-0.41 0-0.75 0.337-0.75 0.75 0 11.52 9.73 21.25 21.25 21.25 0.41 0 0.75-0.336 0.75-0.75v-4.5c0-0.413-0.34-0.75-0.75-0.75-1.64 0-3.73-0.496-5.13-0.96-0.27-0.091-0.57-0.021-0.77 0.179l-3.06 2.188c-0.15 0.11-0.35 0.124-0.52 0.038-3.64-1.866-5.88-4.102-7.72-7.718-0.09-0.19-0.06-0.421 0.09-0.574l2.63-2.725c0.21-0.212 0.28-0.5 0.19-0.778-0.63-1.935-0.96-3.586-0.96-4.9 0-0.413-0.34-0.75-0.75-0.75zm20.5 23c-12.06 0-22.25-10.19-22.25-22.25 0-0.965 0.79-1.75 1.75-1.75h4.5c0.96 0 1.75 0.785 1.75 1.75 0 1.208 0.31 2.753 0.92 4.593 0.2 0.638 0.03 1.319-0.44 1.786l-2.37 2.46c1.66 3.139 3.68 5.148 6.85 6.826l2.75-1.957c0.41-0.414 1.11-0.579 1.73-0.365 1.26 0.417 3.29 0.907 4.81 0.907 0.96 0 1.75 0.785 1.75 1.75v4.5c0 0.965-0.79 1.75-1.75 1.75z"/>
</svg>
