<svg width="55" height="55" version="1.1" viewBox="0 0 55 55" xmlns="http://www.w3.org/2000/svg">
 <path d="m27.5 0c-15.18 0-27.5 12.32-27.5 27.5s12.32 27.5 27.5 27.5 27.5-12.32 27.5-27.5c0-7.446-2.965-14.21-7.777-19.16l-1.434 1.393c4.464 4.594 7.211 10.86 7.211 17.77 0 14.1-11.4 25.5-25.5 25.5s-25.5-11.4-25.5-25.5 11.4-25.5 25.5-25.5c2.549 0 5.008 0.3735 7.328 1.068l0.5742-1.916c-2.504-0.7498-5.158-1.152-7.902-1.152zm-4.5 15.78c-1.093 0-2 0.9073-2 2v18.43c0 0.3681 0.1012 0.7291 0.293 1.043l1.707-1.043v-18.43l15.08 9.217-0.0098 0.0059-10.84 6.988 1.082 1.682 10.81-6.969 0.0039-0.0039c0.269-0.1654 0.4959-0.3915 0.6602-0.6602 0.5699-0.9324 0.2684-2.18-0.6641-2.75l-15.08-9.217c-0.3141-0.192-0.6749-0.293-1.043-0.293z"/>
</svg>
