<svg width="31" height="26" viewBox="0 0 31 26" xmlns="http://www.w3.org/2000/svg">
<path fill-rule="evenodd" clip-rule="evenodd" d="M28.3516 22.9961H26.5516C26.2716 22.9961 26.0516 22.7731 26.0516 22.4961C26.0516 22.2201 26.2716 21.9961 26.5516 21.9961H28.3516C28.7616 21.9961 29.1016 21.6601 29.1016 21.2461V14.5871L26.2516 6.99609H20.1016V17.4961C20.1016 17.7731 19.8816 17.9961 19.6016 17.9961H1.10156V21.2461C1.10156 21.6601 1.44156 21.9961 1.85156 21.9961H4.65156C4.93156 21.9961 5.15156 22.2201 5.15156 22.4961C5.15156 22.7731 4.93156 22.9961 4.65156 22.9961H1.85156C0.881562 22.9961 0.101562 22.2111 0.101562 21.2461V17.4961C0.101562 17.2201 0.321562 16.9961 0.601562 16.9961H19.1016V6.49609C19.1016 6.22009 19.3216 5.99609 19.6016 5.99609H26.6016C26.8116 5.99609 26.9916 6.12609 27.0716 6.32109L30.0716 14.3211C30.0916 14.3771 30.1016 14.4361 30.1016 14.4961V21.2461C30.1016 22.2111 29.3116 22.9961 28.3516 22.9961Z"/>
<path d="M28.3516 22.9961H26.5516C26.2716 22.9961 26.0516 22.7731 26.0516 22.4961C26.0516 22.2201 26.2716 21.9961 26.5516 21.9961H28.3516C28.7616 21.9961 29.1016 21.6601 29.1016 21.2461V14.5871L26.2516 6.99609H20.1016V17.4961C20.1016 17.7731 19.8816 17.9961 19.6016 17.9961H1.10156V21.2461C1.10156 21.6601 1.44156 21.9961 1.85156 21.9961H4.65156C4.93156 21.9961 5.15156 22.2201 5.15156 22.4961C5.15156 22.7731 4.93156 22.9961 4.65156 22.9961H1.85156C0.881562 22.9961 0.101562 22.2111 0.101562 21.2461V17.4961C0.101562 17.2201 0.321562 16.9961 0.601562 16.9961H19.1016V6.49609C19.1016 6.22009 19.3216 5.99609 19.6016 5.99609H26.6016C26.8116 5.99609 26.9916 6.12609 27.0716 6.32109L30.0716 14.3211C30.0916 14.3771 30.1016 14.4361 30.1016 14.4961V21.2461C30.1016 22.2111 29.3116 22.9961 28.3516 22.9961" stroke="black" stroke-width="0.2"/>
<path fill-rule="evenodd" clip-rule="evenodd" d="M21.6016 22.9961H9.60156C9.32156 22.9961 9.10156 22.7731 9.10156 22.4961C9.10156 22.2201 9.32156 21.9961 9.60156 21.9961H21.6016C21.8816 21.9961 22.1016 22.2201 22.1016 22.4961C22.1016 22.7731 21.8816 22.9961 21.6016 22.9961Z"/>
<path d="M21.6016 22.9961H9.60156C9.32156 22.9961 9.10156 22.7731 9.10156 22.4961C9.10156 22.2201 9.32156 21.9961 9.60156 21.9961H21.6016C21.8816 21.9961 22.1016 22.2201 22.1016 22.4961C22.1016 22.7731 21.8816 22.9961 21.6016 22.9961" stroke="black" stroke-width="0.2"/>
<path fill-rule="evenodd" clip-rule="evenodd" d="M0.601562 17.9951C0.321562 17.9951 0.101562 17.7721 0.101562 17.4951V3.95709C0.101562 2.32409 1.46156 0.996094 3.13156 0.996094H17.0716C18.7416 0.996094 20.1016 2.32409 20.1016 3.95709V6.41809C20.1016 6.69509 19.8816 6.91809 19.6016 6.91809C19.3216 6.91809 19.1016 6.69509 19.1016 6.41809V3.95709C19.1016 2.87509 18.1916 1.99609 17.0716 1.99609H3.13156C2.01156 1.99609 1.10156 2.87509 1.10156 3.95709V17.4951C1.10156 17.7721 0.881562 17.9951 0.601562 17.9951Z"/>
<path d="M0.601562 17.9951C0.321562 17.9951 0.101562 17.7721 0.101562 17.4951V3.95709C0.101562 2.32409 1.46156 0.996094 3.13156 0.996094H17.0716C18.7416 0.996094 20.1016 2.32409 20.1016 3.95709V6.41809C20.1016 6.69509 19.8816 6.91809 19.6016 6.91809C19.3216 6.91809 19.1016 6.69509 19.1016 6.41809V3.95709C19.1016 2.87509 18.1916 1.99609 17.0716 1.99609H3.13156C2.01156 1.99609 1.10156 2.87509 1.10156 3.95709V17.4951C1.10156 17.7721 0.881563 17.9951 0.601562 17.9951" stroke="black" stroke-width="0.2"/>
<path fill-rule="evenodd" clip-rule="evenodd" d="M26.6016 13.9961H21.6016C21.3216 13.9961 21.1016 13.7731 21.1016 13.4961V8.49609C21.1016 8.22009 21.3216 7.99609 21.6016 7.99609C21.8816 7.99609 22.1016 8.22009 22.1016 8.49609V12.9961H26.6016C26.8816 12.9961 27.1016 13.2201 27.1016 13.4961C27.1016 13.7731 26.8816 13.9961 26.6016 13.9961Z"/>
<path d="M26.6016 13.9961H21.6016C21.3216 13.9961 21.1016 13.7731 21.1016 13.4961V8.49609C21.1016 8.22009 21.3216 7.99609 21.6016 7.99609C21.8816 7.99609 22.1016 8.22009 22.1016 8.49609V12.9961H26.6016C26.8816 12.9961 27.1016 13.2201 27.1016 13.4961C27.1016 13.7731 26.8816 13.9961 26.6016 13.9961" stroke="black" stroke-width="0.2"/>
<path fill-rule="evenodd" clip-rule="evenodd" d="M24.1016 19.9961C23.0016 19.9961 22.1016 20.8931 22.1016 21.9961C22.1016 23.0991 23.0016 23.9961 24.1016 23.9961C25.2016 23.9961 26.1016 23.0991 26.1016 21.9961C26.1016 20.8931 25.2016 19.9961 24.1016 19.9961ZM24.1016 24.9961C22.4516 24.9961 21.1016 23.6511 21.1016 21.9961C21.1016 20.3421 22.4516 18.9961 24.1016 18.9961C25.7516 18.9961 27.1016 20.3421 27.1016 21.9961C27.1016 23.6511 25.7516 24.9961 24.1016 24.9961Z"/>
<path d="M24.1016 19.8961C22.9464 19.8961 22.0016 20.8378 22.0016 21.9961H22.2016C22.2016 20.9484 23.0567 20.0961 24.1016 20.0961V19.8961ZM22.0016 21.9961C22.0016 23.1544 22.9464 24.0961 24.1016 24.0961V23.8961C23.0567 23.8961 22.2016 23.0438 22.2016 21.9961H22.0016ZM24.1016 24.0961C25.2567 24.0961 26.2016 23.1544 26.2016 21.9961H26.0016C26.0016 23.0438 25.1464 23.8961 24.1016 23.8961V24.0961ZM26.2016 21.9961C26.2016 20.8378 25.2567 19.8961 24.1016 19.8961V20.0961C25.1464 20.0961 26.0016 20.9484 26.0016 21.9961H26.2016ZM24.1016 24.8961C22.5067 24.8961 21.2016 23.5958 21.2016 21.9961H21.0016C21.0016 23.7064 22.3964 25.0961 24.1016 25.0961V24.8961ZM21.2016 21.9961C21.2016 20.3974 22.5067 19.0961 24.1016 19.0961V18.8961C22.3964 18.8961 21.0016 20.2868 21.0016 21.9961H21.2016ZM24.1016 19.0961C25.6964 19.0961 27.0016 20.3974 27.0016 21.9961H27.2016C27.2016 20.2868 25.8067 18.8961 24.1016 18.8961V19.0961ZM27.0016 21.9961C27.0016 23.5958 25.6964 24.8961 24.1016 24.8961V25.0961C25.8067 25.0961 27.2016 23.7064 27.2016 21.9961H27.0016Z"/>
<path fill-rule="evenodd" clip-rule="evenodd" d="M7.10156 19.9961C6.00156 19.9961 5.10156 20.8931 5.10156 21.9961C5.10156 23.0991 6.00156 23.9961 7.10156 23.9961C8.20156 23.9961 9.10156 23.0991 9.10156 21.9961C9.10156 20.8931 8.20156 19.9961 7.10156 19.9961ZM7.10156 24.9961C5.45156 24.9961 4.10156 23.6511 4.10156 21.9961C4.10156 20.3421 5.45156 18.9961 7.10156 18.9961C8.75156 18.9961 10.1016 20.3421 10.1016 21.9961C10.1016 23.6511 8.75156 24.9961 7.10156 24.9961Z"/>
<path d="M7.10156 19.8961C5.94643 19.8961 5.00156 20.8378 5.00156 21.9961H5.20156C5.20156 20.9484 6.05669 20.0961 7.10156 20.0961V19.8961ZM5.00156 21.9961C5.00156 23.1544 5.94643 24.0961 7.10156 24.0961V23.8961C6.05669 23.8961 5.20156 23.0438 5.20156 21.9961H5.00156ZM7.10156 24.0961C8.25669 24.0961 9.20156 23.1544 9.20156 21.9961H9.00156C9.00156 23.0438 8.14643 23.8961 7.10156 23.8961V24.0961ZM9.20156 21.9961C9.20156 20.8378 8.25669 19.8961 7.10156 19.8961V20.0961C8.14643 20.0961 9.00156 20.9484 9.00156 21.9961H9.20156ZM7.10156 24.8961C5.50668 24.8961 4.20156 23.5958 4.20156 21.9961H4.00156C4.00156 23.7064 5.39644 25.0961 7.10156 25.0961V24.8961ZM4.20156 21.9961C4.20156 20.3974 5.5067 19.0961 7.10156 19.0961V18.8961C5.39642 18.8961 4.00156 20.2868 4.00156 21.9961H4.20156ZM7.10156 19.0961C8.69642 19.0961 10.0016 20.3974 10.0016 21.9961H10.2016C10.2016 20.2868 8.8067 18.8961 7.10156 18.8961V19.0961ZM10.0016 21.9961C10.0016 23.5958 8.69644 24.8961 7.10156 24.8961V25.0961C8.80668 25.0961 10.2016 23.7064 10.2016 21.9961H10.0016Z"/>
</svg>
