<svg width="1.33e3" height="677" version="1.1" viewBox="0 0 1327 677" xmlns="http://www.w3.org/2000/svg">
 <path d="m0 0h1.33e3v677h-1.33e3z" fill="#265379"/>
 <path d="m1.8e3 0s-49.5 359-283 560-653 297-653 297m922-857s-49.5 359-283 560-653 297-653 297m922-857s-49.5 359-283 560c-233 201-653 297-653 297m922-857s-49.5 359-283 560c-233 201-653 297-653 297m922-857s-49.5 359-283 560-653 297-653 297m922-857s-49.5 359-283 560-653 297-653 297m922-857s-49.5 359-283 560c-233 201-653 297-653 297m922-857s-49.5 359-283 560c-233 201-653 297-653 297m922-857s-49.5 359-283 560c-233 201-653 297-653 297m922-857s-49.5 359-283 560c-233 201-653 297-653 297m922-857s-49.5 359-283 560-653 297-653 297m922-857s-49.5 359-283 560-653 297-653 297m922-857s-49.5 359-283 560c-233 201-653 297-653 297m922-857s-49.5 359-283 560c-233 201-653 297-653 297m922-857s-49.5 359-283 560-653 297-653 297m922-857s-49.6 359-283 560-653 297-653 297m922-857s-49.5 359-283 560c-233 201-653 297-653 297m922-857s-49.5 359-283 560-653 297-653 297m922-857s-49.5 359-283 560c-233 201-653 297-653 297m922-857s-49.5 359-283 560c-233 201-653 297-653 297m922-857s-49.5 359-283 560-653 297-653 297m922-857s-49.6 359-283 560c-233 201-653 297-653 297m922-857s-49.5 359-283 560c-233 201-653 297-653 297m922-857s-49.5 359-283 560c-233 201-653 297-653 297m922-857s-49.5 359-283 560c-233 201-653 297-653 297m922-857s-49.5 359-283 560c-233 201-653 297-653 297m922-857s-49.5 359-283 560c-233 201-653 297-653 297m922-857s-49.5 359-283 560c-233 201-653 297-653 297m922-857s-49.5 359-283 560c-233 201-653 297-653 297m922-857s-49.5 359-283 560c-233 201-653 297-653 297m922-857s-49.5 359-283 560c-233 201-653 297-653 297m922-857s-49.6 359-283 560-653 297-653 297m922-857s-49.5 359-283 560c-233 201-653 297-653 297m922-857s-49.5 359-283 560c-233 201-653 297-653 297m922-857s-49.5 359-283 560c-233 201-653 297-653 297m922-857s-49.5 359-283 560c-233 201-653 297-653 297m922-857s-49.5 359-283 560c-233 201-653 297-653 297m922-857s-49.6 359-283 560-653 297-653 297m922-857s-49.5 359-283 560c-233 201-653 297-653 297m922-857s-49.5 359-283 560c-233 201-653 297-653 297m922-857s-49.5 359-283 560c-233 201-653 297-653 297m922-857s-49.6 359-283 560c-233 201-653 297-653 297m922-857s-49.5 359-283 560c-233 201-653 297-653 297m922-857s-49.6 359-283 560c-233 201-653 297-653 297m922-857s-49.5 359-283 560c-233 201-653 297-653 297m922-857s-49.5 359-283 560c-233 201-653 297-653 297m922-857s-49.5 359-283 560c-233 201-653 297-653 297m922-857s-49.6 359-283 560c-233 201-653 297-653 297m922-857s-49.5 359-283 560c-233 201-653 297-653 297m922-857s-49.5 359-283 560c-233 201-653 297-653 297m922-857s-49.5 359-283 560c-233 201-653 297-653 297m922-857s-49.5 359-283 560c-233 201-653 297-653 297m922-857s-49.5 359-283 560c-233 201-653 297-653 297m922-857s-49.6 359-283 560c-233 201-653 297-653 297m922-857s-49.5 359-283 560c-233 201-653 297-653 297m922-857s-49.5 359-283 560c-233 201-653 297-653 297m922-857s-49.5 359-283 560c-233 201-653 297-653 297m922-857s-49.5 359-283 560c-233 201-653 297-653 297m922-857s-49.5 359-283 560c-233 201-653 297-653 297m922-857s-49.5 359-283 560c-233 201-653 297-653 297m922-857s-49.5 359-283 560c-233 201-653 297-653 297m922-857s-49.5 359-283 560c-233 201-653 297-653 297m922-857s-49.5 359-283 560c-233 201-653 297-653 297m922-857s-49.5 359-283 560c-233 201-653 297-653 297m922-857s-49.5 359-283 560c-233 201-653 297-653 297m922-857s-49.5 359-283 560-653 297-653 297m922-857s-49.5 359-283 560c-233 201-653 297-653 297m922-857s-49.5 359-283 560c-233 201-653 297-653 297m922-857s-49.5 359-283 560-653 297-653 297m922-857s-49.5 359-283 560c-233 201-653 297-653 297m922-857s-49.5 359-283 560c-233 201-653 297-653 297m922-857s-49.5 359-283 560-653 297-653 297m922-857s-49.5 359-283 560c-233 201-653 297-653 297m922-857s-49.5 359-283 560c-233 201-653 297-653 297m922-857s-49.5 359-283 560c-233 201-653 297-653 297m922-857s-49.5 359-283 560c-233 201-653 297-653 297m922-857s-49.5 359-283 560c-233 201-653 297-653 297m922-857s-49.5 359-283 560c-233 201-653 297-653 297m922-857s-49.5 359-283 560c-233 201-653 297-653 297m922-857s-49.5 359-283 560c-233 201-653 297-653 297m922-857s-49.5 359-283 560c-233 201-653 297-653 297m922-857s-49.5 359-283 560c-233 201-653 297-653 297m922-857s-49.5 359-283 560-653 297-653 297m922-857s-49.5 359-283 560c-233 201-653 297-653 297m922-857s-49.5 359-283 560c-233 201-653 297-653 297m922-857s-49.5 359-283 560-653 297-653 297m922-857s-49.5 359-283 560c-233 201-653 297-653 297m922-857s-49.5 359-283 560c-233 201-653 297-653 297m922-857s-49.5 359-283 560c-233 201-653 297-653 297m922-857s-49.5 359-283 560c-233 201-653 297-653 297m922-857s-49.5 359-283 560c-233 201-653 297-653 297m922-857s-49.5 359-283 560c-233 201-653 297-653 297m922-857s-49.5 359-283 560c-233 201-653 297-653 297m922-857s-49.5 359-283 560c-233 201-653 297-653 297m922-857s-49.5 359-283 560c-233 201-653 297-653 297m922-857s-49.5 359-283 560c-233 201-653 297-653 297m922-857s-49.5 359-283 560c-233 201-653 297-653 297m922-857s-49.5 359-283 560c-233 201-653 297-653 297m922-857s-49.5 359-283 560c-233 201-653 297-653 297m922-857s-49.5 359-283 560c-233 201-653 297-653 297m922-857s-49.5 359-283 560c-233 201-653 297-653 297m922-857s-49.5 359-283 560c-233 201-653 297-653 297m922-857s-49.5 359-283 560-653 297-653 297m922-857s-49.5 359-283 560c-233 201-653 297-653 297m922-857s-49.5 359-283 560c-233 201-653 297-653 297m922-857s-49.5 359-283 560c-233 201-653 297-653 297m922-857s-49.5 359-283 560c-233 201-653 297-653 297m922-857s-49.5 359-283 560c-233 201-653 297-653 297m922-857s-49.5 359-283 560c-233 201-653 297-653 297m922-857s-49.5 359-283 560-653 297-653 297m922-857s-49.5 359-283 560c-233 201-653 297-653 297m922-857s-49.5 359-283 560c-233 201-653 297-653 297m922-857s-49.5 359-283 560c-233 201-653 297-653 297m922-857s-49.5 359-283 560-653 297-653 297m922-857s-49.5 359-283 560c-233 201-653 297-653 297m922-857s-49.5 359-283 560c-233 201-653 297-653 297m922-857s-49.5 359-283 560-653 297-653 297m922-857s-49.5 359-283 560c-233 201-653 297-653 297m922-857s-49.5 359-283 560c-233 201-653 297-653 297m922-857s-49.5 359-283 560-653 297-653 297m922-857s-49.5 359-283 560c-233 201-653 297-653 297m922-857s-49.5 359-283 560c-233 201-653 297-653 297m922-857s-49.5 359-283 560c-233 201-653 297-653 297m922-857s-49.5 359-283 560c-233 201-653 297-653 297m922-857s-49.5 359-283 560c-233 201-653 297-653 297m922-857s-49.5 359-283 560c-233 201-653 297-653 297m922-857s-49.5 359-283 560c-233 201-653 297-653 297m922-857s-49.5 359-283 560c-233 201-653 297-653 297m922-857s-49.5 359-283 560c-233 201-653 297-653 297m922-857s-49.5 359-283 560c-233 201-653 297-653 297m922-857s-49.5 359-283 560c-233 201-653 297-653 297" fill="none" stroke-opacity=".1" stroke="#fff"/>
</svg>
