<svg width="1366" height="608" fill="none" version="1.1" viewBox="0 0 1366 608" preserveAspectRatio="none" xmlns="http://www.w3.org/2000/svg">
 <rect width="1366" height="608" fill="#244E72"/>
 <path d="m1278 608.5s72.12-264.1 244.8-383.6c172.6-119.5 671.2-250.4 671.2-250.4m-926 634s72.04-264.1 244.5-383.6 670.5-250.4 670.5-250.4m-925 634s72.04-264.1 244.5-383.6 670.5-250.4 670.5-250.4m-925 634s72.04-264.1 244.5-383.6 670.5-250.4 670.5-250.4m-925 634s72.04-264.1 244.5-383.6 670.5-250.4 670.5-250.4m-925 634s72.04-264.1 244.5-383.6 670.5-250.4 670.5-250.4m-925 634s72.04-264.1 244.5-383.6 670.5-250.4 670.5-250.4m-925 634s72.04-264.1 244.5-383.6 670.5-250.4 670.5-250.4m-925 634s72.04-264.1 244.5-383.6 670.5-250.4 670.5-250.4m-925 634s72.04-264.1 244.5-383.6 670.5-250.4 670.5-250.4m-925 634s72.04-264.1 244.5-383.6 670.5-250.4 670.5-250.4m-925 634s72.04-264.1 244.5-383.6 670.5-250.4 670.5-250.4m-925 634s72.04-264.1 244.5-383.6 670.5-250.4 670.5-250.4m-925 634s72.12-264.1 244.8-383.6c172.6-119.5 671.2-250.4 671.2-250.4m-926 634s72.04-264.1 244.5-383.6 670.5-250.4 670.5-250.4m-925 634s72.04-264.1 244.5-383.6 670.5-250.4 670.5-250.4m-925 634s72.04-264.1 244.5-383.6 670.5-250.4 670.5-250.4m-925 634s72.04-264.1 244.5-383.6 670.5-250.4 670.5-250.4m-925 634s72.04-264.1 244.5-383.6 670.5-250.4 670.5-250.4m-925 634s72.04-264.1 244.5-383.6 670.5-250.4 670.5-250.4m-925 634s72.04-264.1 244.5-383.6 670.5-250.4 670.5-250.4m-925 634s72.04-264.1 244.5-383.6 670.5-250.4 670.5-250.4m-925 634s72.04-264.1 244.5-383.6 670.5-250.4 670.5-250.4m-925 634s72.04-264.1 244.5-383.6 670.5-250.4 670.5-250.4m-925 634s72.04-264.1 244.5-383.6 670.5-250.4 670.5-250.4m-925 634s72.04-264.1 244.5-383.6 670.5-250.4 670.5-250.4m-925 634s72.12-264.1 244.8-383.6c172.6-119.5 671.2-250.4 671.2-250.4m-926 634s72.04-264.1 244.5-383.6 670.5-250.4 670.5-250.4m-925 634s72.04-264.1 244.5-383.6 670.5-250.4 670.5-250.4m-925 634s72.04-264.1 244.5-383.6 670.5-250.4 670.5-250.4m-925 634s72.04-264.1 244.5-383.6 670.5-250.4 670.5-250.4m-925 634s72.04-264.1 244.5-383.6 670.5-250.4 670.5-250.4m-925 634s72.04-264.1 244.5-383.6 670.5-250.4 670.5-250.4m-925 634s72.04-264.1 244.5-383.6 670.5-250.4 670.5-250.4m-925 634s72.04-264.1 244.5-383.6 670.5-250.4 670.5-250.4m-925 634s72.04-264.1 244.5-383.6c172.5-119.5 670.5-250.4 670.5-250.4m-925 634s72.04-264.1 244.5-383.6c172.5-119.5 670.5-250.4 670.5-250.4m-925 634s72.04-264.1 244.5-383.6c172.5-119.5 670.5-250.4 670.5-250.4m-925 634s72.04-264.1 244.5-383.6c172.5-119.5 670.5-250.4 670.5-250.4m-925 634s72.12-264.1 244.8-383.6c172.6-119.5 671.2-250.4 671.2-250.4m-926 634s72.04-264.1 244.5-383.6c172.5-119.5 670.5-250.4 670.5-250.4m-925 634s72.04-264.1 244.5-383.6c172.5-119.5 670.5-250.4 670.5-250.4m-925 634s72.04-264.1 244.5-383.6c172.5-119.5 670.5-250.4 670.5-250.4m-925 634s72.04-264.1 244.5-383.6c172.5-119.5 670.5-250.4 670.5-250.4m-925 634s72.04-264.1 244.5-383.6c172.5-119.5 670.5-250.4 670.5-250.4m-925 634s72.04-264.1 244.5-383.6c172.5-119.5 670.5-250.4 670.5-250.4m-925 634s72.04-264.1 244.5-383.6c172.5-119.5 670.5-250.4 670.5-250.4m-925 634s72.04-264.1 244.5-383.6c172.5-119.5 670.5-250.4 670.5-250.4m-925 634s72.04-264.1 244.5-383.6c172.5-119.5 670.5-250.4 670.5-250.4m-925 634s72.04-264.1 244.5-383.6c172.5-119.5 670.5-250.4 670.5-250.4m-925 634s72.04-264.1 244.5-383.6c172.5-119.5 670.5-250.4 670.5-250.4m-925 634s72.04-264.1 244.5-383.6c172.5-119.5 670.5-250.4 670.5-250.4m-925 634s72.12-264.1 244.8-383.6c172.6-119.5 671.2-250.4 671.2-250.4m-926 634s72.04-264.1 244.5-383.6c172.5-119.5 670.5-250.4 670.5-250.4m-925 634s72.04-264.1 244.5-383.6c172.5-119.5 670.5-250.4 670.5-250.4m-925 634s72.04-264.1 244.5-383.6c172.5-119.5 670.5-250.4 670.5-250.4m-925 634s72.04-264.1 244.5-383.6c172.5-119.5 670.5-250.4 670.5-250.4m-925 634s72.04-264.1 244.5-383.6c172.5-119.5 670.5-250.4 670.5-250.4m-925 634s72.04-264.1 244.5-383.6c172.5-119.5 670.5-250.4 670.5-250.4m-925 634s72.04-264.1 244.5-383.6c172.5-119.5 670.5-250.4 670.5-250.4m-925 634s72.04-264.1 244.5-383.6c172.5-119.5 670.5-250.4 670.5-250.4m-925 634s72.04-264.1 244.5-383.6c172.5-119.5 670.5-250.4 670.5-250.4m-925 634s72.04-264.1 244.5-383.6c172.5-119.5 670.5-250.4 670.5-250.4m-925 634s72.04-264.1 244.5-383.6c172.5-119.5 670.5-250.4 670.5-250.4m-925 634s72.04-264.1 244.5-383.6c172.5-119.5 670.5-250.4 670.5-250.4m-925 634s72.12-264.1 244.8-383.6c172.6-119.5 671.2-250.4 671.2-250.4m-926 634s72.04-264.1 244.5-383.6c172.5-119.5 670.5-250.4 670.5-250.4m-925 634s72.04-264.1 244.5-383.6c172.5-119.5 670.5-250.4 670.5-250.4m-925 634s72.04-264.1 244.5-383.6c172.5-119.5 670.5-250.4 670.5-250.4m-925 634s72.04-264.1 244.5-383.6c172.5-119.5 670.5-250.4 670.5-250.4m-925 634s72.04-264.1 244.5-383.6 670.5-250.4 670.5-250.4m-925 634s72.04-264.1 244.5-383.6 670.5-250.4 670.5-250.4m-925 634s72.04-264.1 244.5-383.6 670.5-250.4 670.5-250.4m-925 634s72.04-264.1 244.5-383.6 670.5-250.4 670.5-250.4m-925 634s72.04-264.1 244.5-383.6 670.5-250.4 670.5-250.4m-925 634s72.04-264.1 244.5-383.6 670.5-250.4 670.5-250.4m-925 634s72.04-264.1 244.5-383.6 670.5-250.4 670.5-250.4m-925 634s72.04-264.1 244.5-383.6 670.5-250.4 670.5-250.4m-925 634s72.12-264.1 244.8-383.6 671.2-250.4 671.2-250.4m-926 634s72.04-264.1 244.5-383.6 670.5-250.4 670.5-250.4m-925 634s72.04-264.1 244.5-383.6 670.5-250.4 670.5-250.4m-925 634s72.04-264.1 244.5-383.6 670.5-250.4 670.5-250.4m-925 634s72.04-264.1 244.5-383.6 670.5-250.4 670.5-250.4m-925 634s72.04-264.1 244.5-383.6 670.5-250.4 670.5-250.4m-925 634s72.04-264.1 244.5-383.6 670.5-250.4 670.5-250.4m-925 634s72.04-264.1 244.5-383.6 670.5-250.4 670.5-250.4m-925 634s72.04-264.1 244.5-383.6 670.5-250.4 670.5-250.4m-925 634s72.04-264.1 244.5-383.6 670.5-250.4 670.5-250.4m-925 634s72.04-264.1 244.5-383.6 670.5-250.4 670.5-250.4m-925 634s72.04-264.1 244.5-383.6 670.5-250.4 670.5-250.4m-925 634s72.04-264.1 244.5-383.6 670.5-250.4 670.5-250.4m-925 634s72.12-264.1 244.8-383.6 671.2-250.4 671.2-250.4m-926 634s72.04-264.1 244.5-383.6 670.5-250.4 670.5-250.4m-925 634s72.04-264.1 244.5-383.6 670.5-250.4 670.5-250.4m-925 634s72.04-264.1 244.5-383.6 670.5-250.4 670.5-250.4m-925 634s72.04-264.1 244.5-383.6 670.5-250.4 670.5-250.4m-925 634s72.04-264.1 244.5-383.6 670.5-250.4 670.5-250.4m-925 634s72.04-264.1 244.5-383.6 670.5-250.4 670.5-250.4m-925 634s72.04-264.1 244.5-383.6 670.5-250.4 670.5-250.4m-925 634s72.04-264.1 244.5-383.6 670.5-250.4 670.5-250.4m-925 634s72.04-264.1 244.5-383.6 670.5-250.4 670.5-250.4m-925 634s72.04-264.1 244.5-383.6 670.5-250.4 670.5-250.4m-925 634s72.04-264.1 244.5-383.6 670.5-250.4 670.5-250.4m-925 634s72.04-264.1 244.5-383.6 670.5-250.4 670.5-250.4m-925 634s72.12-264.1 244.8-383.6 671.2-250.4 671.2-250.4m-926 634s72.04-264.1 244.5-383.6 670.5-250.4 670.5-250.4m-925 634s72.04-264.1 244.5-383.6 670.5-250.4 670.5-250.4m-925 634s72.04-264.1 244.5-383.6 670.5-250.4 670.5-250.4m-925 634s72.04-264.1 244.5-383.6 670.5-250.4 670.5-250.4m-925 634s72.04-264.1 244.5-383.6 670.5-250.4 670.5-250.4m-925 634s72.04-264.1 244.5-383.6 670.5-250.4 670.5-250.4m-925 634s72.04-264.1 244.5-383.6 670.5-250.4 670.5-250.4m-925 634s72.04-264.1 244.5-383.6 670.5-250.4 670.5-250.4m-925 634s72.04-264.1 244.5-383.6 670.5-250.4 670.5-250.4m-925 634s72.04-264.1 244.5-383.6 670.5-250.4 670.5-250.4m-925 634s72.04-264.1 244.5-383.6 670.5-250.4 670.5-250.4m-925 634s72.04-264.1 244.5-383.6 670.5-250.4 670.5-250.4m-925 634s72.12-264.1 244.8-383.6 671.2-250.4 671.2-250.4m-926 634s72.04-264.1 244.5-383.6 670.5-250.4 670.5-250.4m-925 634s72.04-264.1 244.5-383.6 670.5-250.4 670.5-250.4m-925 634s72.04-264.1 244.5-383.6 670.5-250.4 670.5-250.4m-925 634s72.04-264.1 244.5-383.6 670.5-250.4 670.5-250.4m-925 634s72.04-264.1 244.5-383.6 670.5-250.4 670.5-250.4m-925 634s72.04-264.1 244.5-383.6 670.5-250.4 670.5-250.4m-925 634s72.04-264.1 244.5-383.6 670.5-250.4 670.5-250.4m-925 634s72.04-264.1 244.5-383.6c172.5-119.5 670.5-250.4 670.5-250.4m-925 634s72.04-264.1 244.5-383.6c172.5-119.5 670.5-250.4 670.5-250.4m-925 634s72.04-264.1 244.5-383.6c172.5-119.5 670.5-250.4 670.5-250.4m-925 634s72.04-264.1 244.5-383.6c172.5-119.5 670.5-250.4 670.5-250.4m-925 634s72.04-264.1 244.5-383.6c172.5-119.5 670.5-250.4 670.5-250.4m-925 634s72.12-264.1 244.8-383.6c172.6-119.5 671.2-250.4 671.2-250.4m-926 634s72.04-264.1 244.5-383.6c172.5-119.5 670.5-250.4 670.5-250.4m-925 634s72.04-264.1 244.5-383.6c172.5-119.5 670.5-250.4 670.5-250.4m-925 634s72.04-264.1 244.5-383.6c172.5-119.5 670.5-250.4 670.5-250.4m-925 634s72.04-264.1 244.5-383.6c172.5-119.5 670.5-250.4 670.5-250.4m-925 634s72.04-264.1 244.5-383.6c172.5-119.5 670.5-250.4 670.5-250.4m-925 634s72.04-264.1 244.5-383.6c172.5-119.5 670.5-250.4 670.5-250.4m-925 634s72.04-264.1 244.5-383.6c172.5-119.5 670.5-250.4 670.5-250.4m-925 634s72.04-264.1 244.5-383.6c172.5-119.5 670.5-250.4 670.5-250.4m-925 634s72.04-264.1 244.5-383.6c172.5-119.5 670.5-250.4 670.5-250.4m-925 634s72.04-264.1 244.5-383.6c172.5-119.5 670.5-250.4 670.5-250.4m-925 634s72.04-264.1 244.5-383.6c172.5-119.5 670.5-250.4 670.5-250.4m-925 634s72.04-264.1 244.5-383.6c172.5-119.5 670.5-250.4 670.5-250.4m-925 634s72.12-264.1 244.8-383.6c172.6-119.5 671.2-250.4 671.2-250.4m-926 634s72.04-264.1 244.5-383.6c172.5-119.5 670.5-250.4 670.5-250.4m-925 634s72.04-264.1 244.5-383.6 670.5-250.4 670.5-250.4m-925 634s72.04-264.1 244.5-383.6 670.5-250.4 670.5-250.4m-925 634s72.04-264.1 244.5-383.6 670.5-250.4 670.5-250.4m-925 634s72.04-264.1 244.5-383.6 670.5-250.4 670.5-250.4m-925 634s72.04-264.1 244.5-383.6 670.5-250.4 670.5-250.4m-925 634s72.04-264.1 244.5-383.6 670.5-250.4 670.5-250.4m-925 634s72.04-264.1 244.5-383.6 670.5-250.4 670.5-250.4m-925 634s72.04-264.1 244.5-383.6 670.5-250.4 670.5-250.4m-925 634s72.04-264.1 244.5-383.6 670.5-250.4 670.5-250.4m-925 634s72.04-264.1 244.5-383.6 670.5-250.4 670.5-250.4m-925 634s72.04-264.1 244.5-383.6 670.5-250.4 670.5-250.4m-925 634s72.12-264.1 244.8-383.6c172.6-119.5 671.2-250.4 671.2-250.4m-926 634s72.04-264.1 244.5-383.6 670.5-250.4 670.5-250.4m-925 634s72.04-264.1 244.5-383.6 670.5-250.4 670.5-250.4m-925 634s72.04-264.1 244.5-383.6 670.5-250.4 670.5-250.4m-925 634s72.04-264.1 244.5-383.6c172.5-119.5 670.5-250.4 670.5-250.4m-925 634s72.04-264.1 244.5-383.6c172.5-119.5 670.5-250.4 670.5-250.4m-925 634s72.04-264.1 244.5-383.6c172.5-119.5 670.5-250.4 670.5-250.4m-925 634s72.04-264.1 244.5-383.6c172.5-119.5 670.5-250.4 670.5-250.4m-925 634s72.04-264.1 244.5-383.6c172.5-119.5 670.5-250.4 670.5-250.4m-925 634s72.04-264.1 244.5-383.6c172.5-119.5 670.5-250.4 670.5-250.4m-925 634s72.04-264.1 244.5-383.6c172.5-119.5 670.5-250.4 670.5-250.4m-925 634s72.04-264.1 244.5-383.6c172.5-119.5 670.5-250.4 670.5-250.4m-925 634s72.04-264.1 244.5-383.6c172.5-119.5 670.5-250.4 670.5-250.4m-925 634s72.12-264.1 244.8-383.6c172.6-119.5 671.2-250.4 671.2-250.4m-926 634s72.04-264.1 244.5-383.6c172.5-119.5 670.5-250.4 670.5-250.4m-925 634s72.04-264.1 244.5-383.6c172.5-119.5 670.5-250.4 670.5-250.4m-925 634s72.04-264.1 244.5-383.6c172.5-119.5 670.5-250.4 670.5-250.4m-925 634s72.04-264.1 244.5-383.6c172.5-119.5 670.5-250.4 670.5-250.4m-925 634s72.04-264.1 244.5-383.6c172.5-119.5 670.5-250.4 670.5-250.4m-925 634s72.04-264.1 244.5-383.6c172.5-119.5 670.5-250.4 670.5-250.4m-925 634s72.04-264.1 244.5-383.6c172.5-119.5 670.5-250.4 670.5-250.4m-925 634s72.04-264.1 244.5-383.6c172.5-119.5 670.5-250.4 670.5-250.4m-925 634s72.04-264.1 244.5-383.6c172.5-119.5 670.5-250.4 670.5-250.4m-925 634s72.04-264.1 244.5-383.6c172.5-119.5 670.5-250.4 670.5-250.4m-925 634s72.04-264.1 244.5-383.6 670.5-250.4 670.5-250.4m-925 634s72.04-264.1 244.5-383.6 670.5-250.4 670.5-250.4m-925 634s72.12-264.1 244.8-383.6 671.2-250.4 671.2-250.4m-926 634s72.04-264.1 244.5-383.6 670.5-250.4 670.5-250.4m-925 634s72.04-264.1 244.5-383.6 670.5-250.4 670.5-250.4m-925 634s72.04-264.1 244.5-383.6 670.5-250.4 670.5-250.4m-925 634s72.04-264.1 244.5-383.6 670.5-250.4 670.5-250.4m-925 634s72.04-264.1 244.5-383.6 670.5-250.4 670.5-250.4m-925 634s72.04-264.1 244.5-383.6 670.5-250.4 670.5-250.4m-925 634s72.04-264.1 244.5-383.6 670.5-250.4 670.5-250.4m-925 634s72.04-264.1 244.5-383.6 670.5-250.4 670.5-250.4m-925 634s72.04-264.1 244.5-383.6 670.5-250.4 670.5-250.4m-925 634s72.04-264.1 244.5-383.6 670.5-250.4 670.5-250.4m-925 634s72.04-264.1 244.5-383.6 670.5-250.4 670.5-250.4m-925 634s72.04-264.1 244.5-383.6 670.5-250.4 670.5-250.4" opacity=".1" stroke="#fff" stroke-linecap="square"/>
 <path d="m1242 1058c358.1-123.3 550.3-821.2 400.3-1061-150-239.3-270.8 206.7-628.9 330-358.1 123.3-831.8-25.79-778.2 450.7 53.68 476.5 648.7 403.2 1007 279.9z" clip-rule="evenodd" fill="url(#paint0_linear)" fill-rule="evenodd"/>
 <path d="m45.73-21.06c-54.38 12.75-113.9 61.48-86.34 84.72 27.58 23.24 29.35 7.319 77.4-6.664 48.05-13.98 102.2 4.894 118.2-36.58 15.99-41.47-54.89-54.22-109.3-41.47z" clip-rule="evenodd" fill="url(#paint1_linear)" fill-rule="evenodd"/>
 <defs>
  <linearGradient id="paint0_linear" x1="739.5" x2="850.2" y1="394.9" y2="716.1" gradientUnits="userSpaceOnUse">
   <stop stop-color="#84BCE9" offset="0"/>
   <stop stop-color="#A7D3FB" offset="1"/>
  </linearGradient>
  <linearGradient id="paint1_linear" x1="341.4" x2="279.4" y1="57.88" y2="-140.1" gradientUnits="userSpaceOnUse">
   <stop stop-color="#ADDAFE" offset="0"/>
   <stop stop-color="#67A6F0" offset="1"/>
  </linearGradient>
 </defs>
</svg>
