<svg width="179.1" height="121.6" version="1.1" viewBox="0 0 179.1 121.6" xmlns="http://www.w3.org/2000/svg" preserveAspectRatio="none">
 <path d="m85.97 0.001953c-10.71-0.08881-21.48 4.75-27.86 12.05-0.38 0.44-0.819 0.8508-1.209 1.301-0.38 0.45-1.091 1.49-0.1309 2.27 1.02 0.83 1.931-0.2393 1.961-0.2793v-0.009766c11.62-14.04 35.3-18.09 47.95-3.281 2.53 2.96 4.471 6.63 5.641 10.34 1.41 4.49 1.84 9.58 0.2402 14.09-0.12 0.37-0.1909 1.41 0.7891 1.73 0.57 0.18 1.071-0.06984 1.361-0.3398 0.35-0.33 0.4101-0.5898 0.5801-1.09 1.56-4.91 1.12-10.33-0.4102-15.19-1.28-4.06-3.4-8.041-6.16-11.28-6.142-7.192-14.43-10.24-22.76-10.31zm0.2754 6.061c-3.2-0.05-6.209 0.4612-8.859 1.201-0.17 0.05-1.111 0.4196-0.8613 1.6 0.2 0.89 0.8309 1.05 1.211 1.07 2.01-0.53 4.329-0.9303 6.959-1.07 0.04 0 0.08156-0.009766 0.1016-0.009766 6.13-0.31 10.85 1.749 13.73 3.539l0.02148-0.01953c4.49 2.8 7.239 6.83 8.309 11.83 0 0 0.2204 1.209 1.4 1.109l0.1602-0.01953c1.24-0.22 1.141-1.26 1.061-1.65-1.29-6.02-4.75-10.85-10.34-14.04-0.93-0.53-1.901-1-2.891-1.41-1.64-0.72-3.479-1.3-5.529-1.68-1.41-0.28-2.97-0.4912-4.34-0.4512h-0.1309zm-1.02 5.471c-6.76 0.19-13.61 3.169-18.36 7.619-6.84 6.4-8.92 14.82-7.51 23.95 1.42 9.23 6.311 16.44 14.8 20.46 2.64 1.25 5.489 2.131 8.359 2.621 1.21 0.21 2.581 0.4002 3.811 0.4102 0 0 1.339 0.01969 1.359-1.32 0.01-1.34-1.409-1.359-1.559-1.359-1.03-0.04-2.16-0.2011-3.15-0.3711-2.63-0.45-5.25-1.25-7.67-2.4-7.68-3.64-12.01-10.1-13.31-18.45-1.27-8.24 0.5092-15.79 6.699-21.59 4.2-3.93 10.41-6.661 16.47-6.951h0.05078 0.05859c0.43-0.03 1.95-0.1896 1.82-1.35-0.13-1.22-1.599-1.27-1.869-1.27zm-17.43 0.2363c-0.3475-0.02125-0.6733 0.1094-0.8633 0.2344-0.74 0.5-1.44 1.04-1.99 1.52-3.55 3.04-6.279 7.22-8.299 11.4-3.12 6.45-3.75 14.21-2.17 21.16 1.95 8.56 7.08 15.57 14.4 20.36 6.81 4.46 14.56 6.129 22.6 5.029 2.54-0.35 5.059-0.9698 7.459-1.84l0.1504-0.05859c0.81 0.99 2.121 1.519 3.471 1.289 1.99-0.36 3.329-2.26 2.969-4.25-0.35-2-2.25-3.33-4.24-2.98-1.71 0.3-2.929 1.741-3.029 3.391l-0.2305 0.08984c-2.23 0.81-4.57 1.379-6.91 1.699-7.4 1.02-14.5-0.4994-20.77-4.609-6.74-4.42-11.46-10.83-13.26-18.72-1.44-6.35-0.8793-13.49 1.971-19.39 1.86-3.84 4.379-7.741 7.639-10.54 0.57-0.49 1.19-0.9689 1.83-1.379 0 0 0.8415-0.7505 0.2715-1.73-0.28-0.48-0.6505-0.6526-0.998-0.6738zm18.62 4.867c-2.785 5e-3 -5.575 0.5209-8.18 1.506-5.48 2.07-9.71 5.921-12.02 11.28-0.88 2.04-1.441 4.229-1.691 6.449v0.0293c-0.01 0.12-0.02906 0.2413-0.03906 0.3613-0.05 0.74 0.08898 1.51 1.209 1.59 1.17 0.08 1.37-1.121 1.4-1.381l0.009766-0.04883c0.2-2.07 0.7115-4.1 1.521-5.99 2.03-4.71 5.719-8.051 10.54-9.871 0.34-0.13 0.6795-0.2491 1.02-0.3691 2.5-0.79 7.8-1.941 13.23 0.2793 0 0 1.271 0.3704 1.801-0.5996 0.53-0.98-0.6404-1.67-0.6504-1.67-2.585-1.065-5.365-1.571-8.15-1.566zm22.21 14.66c-1.34-0.03-1.281 1.641-1.281 1.641h-0.00977c-0.12 12.39-12.37 20.93-20.56 17.63 0.28-0.75 0.3609-1.58 0.2109-2.42-0.45-2.56-2.879-4.259-5.439-3.809-2.55 0.45-4.261 2.879-3.811 5.439 0.45 2.55 2.889 4.261 5.439 3.811 0.73-0.13 1.391-0.4201 1.951-0.8301 10.25 5.29 25.05-5.58 24.89-20.17-0.03-0.23-0.1987-1.271-1.389-1.291zm-42.18 10.96c-0.118-0.008789-0.2469-0.001406-0.3906 0.02734-1.12 0.22-1.22 0.9599-1.07 1.67 0.01 0.05 0.02906 0.09062 0.03906 0.1406 0 0.02-2.35e-4 0.02906 0.009765 0.03906 0.01 0.04 0.01148 0.08109 0.02148 0.1211 0.99 4.03 3.149 7.59 6.119 10.5 0.95 0.93 1.98 1.789 3.07 2.549 0.45 0.31 0.9302 0.6306 1.41 0.8906 0.03 0.02 1.15 0.6002 1.77-0.5098 0.63-1.14-0.4593-1.71-0.7793-1.91-0.3-0.18-0.6106-0.3901-0.8906-0.5801-0.97-0.68-1.89-1.461-2.74-2.291-2.62-2.56-4.54-5.7-5.41-9.26-0.03-0.12-0.05984-0.2489-0.08984-0.3789-0.0175-0.07875-0.2422-0.9463-1.068-1.008zm104 35.54v0.5215h1.439v3.678h0.5938v-3.678h1.441v-0.5215h-3.475zm4.133 0v4.199h0.5762v-3.041l1.518 2.531h0.2774l1.518-2.551 0.00585 3.061h0.5762l-0.00586-4.199h-0.4922l-1.729 2.951-1.752-2.951h-0.4922zm-89.19 3.293c-2.18 0-3.941 0.5599-5.291 1.67-1.34 1.12-2.409 2.909-3.209 5.379l-3.65 11.27c-0.8 2.47-0.8798 4.259-0.2598 5.369 0.63 1.12 2.031 1.68 4.211 1.68h7.779c2.18 0 3.939-0.5597 5.289-1.68 1.34-1.11 2.411-2.899 3.211-5.369l3.65-11.27c0.8-2.47 0.8798-4.259 0.2598-5.379-0.63-1.11-2.031-1.67-4.211-1.67h-7.779zm-77.43 0.3496-7.98 24.67h5.6l3.25-10.05h7.781l-3.25 10.05h5.6l7.98-24.67h-5.602l-3.129 9.689h-7.791l3.141-9.689h-5.6zm28.65 0-16.23 24.67h6.07l2.83-4.41h7.779l-0.0293 4.41h6.068l-0.2695-24.67h-6.219zm21.11 0-7.98 24.67h13.38c2.04 0 3.7-0.5391 5.01-1.619 1.3-1.09 2.33-2.78 3.07-5.08 0.31-0.96 0.48-1.811 0.5-2.551s-0.05047-1.371-0.2305-1.891c-0.17-0.51-0.4408-0.9285-0.8008-1.229-0.36-0.31-0.7404-0.5299-1.15-0.6699 0.9-0.35 1.762-0.9716 2.592-1.852 0.82-0.88 1.46-2.03 1.92-3.43 0.69-2.14 0.7294-3.729 0.1094-4.779-0.61-1.04-1.941-1.57-3.971-1.57h-12.45zm46.72 0-6.861 18.32c-0.17 0.45-0.4291 0.8289-0.7891 1.129-0.36 0.31-0.7309 0.4609-1.131 0.4609h-1.4l-1.539 4.76c0.31 0.07 0.6498 0.1199 1.01 0.1699 0.29 0.05 0.63 0.09086 1 0.1309 0.37 0.03 0.7504 0.04883 1.15 0.04883 1.41 0 2.699-0.489 3.859-1.459 1.17-0.98 2.08-2.31 2.73-4l5.51-14.62h6.529l-6.379 19.73h5.6l7.98-24.67h-17.27zm20.87 0-7.98 24.67h5.6l3.25-10.05h7.781l-3.25 10.05h5.609l7.971-24.67h-5.6l-3.131 9.689h-7.779l3.129-9.689h-5.6zm22.58 0-7.98 24.67h17.28l1.59-4.939h-11.67l1.648-5.111h9.182l1.6-4.93h-9.18l1.539-4.75h11.67l1.59-4.939h-17.27zm-62.85 4.58h5.289c1.25 0 1.639 0.7091 1.189 2.119l-3.648 11.27c-0.46 1.41-1.311 2.119-2.551 2.119h-5.289c-1.25 0-1.641-0.7091-1.191-2.119l3.65-11.27c0.46-1.41 1.311-2.119 2.551-2.119zm-23.32 0.3594h5.299c1.24 0 1.632 0.7013 1.182 2.111l-0.2305 0.6992c-0.46 1.41-1.311 2.119-2.551 2.119h-5.289l1.59-4.93zm-24.39 2.461-0.1895 8.279h-4.98l5.17-8.279zm21.2 7.4h6.229c1.24 0 1.642 0.7094 1.182 2.109l-0.2305 0.709c-0.45 1.41-1.301 2.111-2.551 2.111h-6.219l1.59-4.93zm-29 18.03c-1.52 0-2.61 0.5794-3.07 1.609l-1.461 3.32c-0.46 1.02 0.1204 1.609 1.65 1.609 1.52 0 2.62-0.5894 3.07-1.609l1.471-3.32c0.45-1.03-0.1302-1.609-1.66-1.609zm33.06 0c-1.53 0-2.62 0.5794-3.07 1.609l-1.469 3.32c-0.45 1.02 0.1304 1.609 1.65 1.609 1.53 0 2.618-0.5894 3.068-1.609l1.471-3.32c0.45-1.03-0.1204-1.609-1.65-1.609zm51 0c-1.53 0-2.62 0.5794-3.07 1.609l-1.469 3.32c-0.45 1.02 0.1204 1.609 1.65 1.609s2.618-0.5894 3.068-1.609l1.471-3.32c0.45-1.03-0.1204-1.609-1.65-1.609zm-106.5 0.07031-2.82 6.389h1.6l2.59-2.93 1.33-1.57-1.99 4.5h1.4l2.83-6.389h-1.709l-2.441 2.639-1.189 1.41 1.791-4.049h-1.391zm6.74 0-2.83 6.389h1.561l1.209-2.738h1.77l-1.209 2.738h1.58l2.82-6.389h-1.58l-1.211 2.74h-1.77l1.209-2.74h-1.549zm6.73 0-2.82 6.389h1.549l1.221-2.738h1.76l-1.209 2.738h1.59l2.82-6.389h-1.58l-1.211 2.74h-1.77l1.209-2.74h-1.559zm13.04 0-2.83 6.389h2.451c1.55 0 2.589-0.5298 3.029-1.51l0.2305-0.5195c0.3-0.68 0.1895-1.159-0.5605-1.369 0.79-0.21 1.29-0.631 1.58-1.291l0.09961-0.2305c0.43-0.98-0.05016-1.469-1.66-1.469h-2.34zm7.609 0-4.41 6.389h1.432l0.7793-1.158h1.91l-0.25 1.158h1.57l1.24-6.389h-2.271zm5.281 0-2.83 6.389h4.08l-0.3809 0.8613h1.51l0.7715-1.75h-0.6699l2.42-5.5h-1.58l-2.42 5.48h-1.771l2.42-5.48h-1.549zm7.129 0-2.82 6.389h1.592l2.6-2.93 1.33-1.57-1.99 4.5h1.4l2.818-6.389h-1.709l-2.439 2.639-1.18 1.41 1.779-4.049h-1.381zm13.03 0-2.82 6.389h1.549l1.211-2.738h1.77l-1.209 2.738h1.58l2.83-6.389h-1.59l-1.211 2.74h-1.76l1.209-2.74h-1.559zm6.74 0-2.83 6.389h1.559l1.211-2.738h1.77l-1.209 2.738h1.58l2.818-6.389h-1.58l-1.209 2.74h-1.77l1.209-2.74h-1.549zm6.729 0-2.82 6.389h2.291c1.55 0 2.56-0.5501 3.02-1.58l0.3613-0.8281c0.45-1.02-0.06109-1.58-1.621-1.58h-0.7305l1.061-2.4h-1.561zm5.5 0-2.82 6.389h1.551l2.83-6.389h-1.561zm3.391 0-2.83 6.389h4.25l0.4004-0.9082h-2.689l0.8301-1.871h2.129l0.4102-0.9102h-2.141l0.791-1.779h2.689l0.4004-0.9199h-4.24zm9.58 0-2.82 6.389h1.551l2.42-5.469h1.77l-2.42 5.469h1.58l2.83-6.389h-4.91zm6.73 0-2.82 6.389h1.561l1.059-2.398h0.7305c1.56 0 2.57-0.5501 3.02-1.58l0.3711-0.8301c0.45-1.02-0.07086-1.58-1.631-1.58h-2.289zm13.33 0-2.41 4.67c-0.19 0.37-0.38 0.6101-0.75 0.8301h-0.6113l-0.7695 1.75h1.51l0.3808-0.8613h3.32l-0.3809 0.8613h1.541l0.7793-1.75h-0.6797l2.43-5.5h-4.359zm6.148 0-0.02929 4.93-0.03907 0.06054c-0.33 0.46-0.8316 0.5495-1.602 0.5195l-0.3984 0.8906c2.12 0.09 2.989-0.4809 3.859-1.631l3.779-4.77h-1.629l-1.67 2.189-1.031 1.49 0.1816-1.49 0.1191-2.189h-1.541zm6.922 0-2.83 6.389h1.559l0.8613-1.959 0.7383-0.5801 0.3906 2.539h1.6l-0.5996-3.539 3.42-2.85h-1.549l-3.271 2.789 1.23-2.789h-1.549zm6.09 0-0.4004 0.9199h1.629l-2.42 5.469h1.551l2.42-5.469h1.631l0.3984-0.9199h-4.809zm6.189 0-2.82 6.389h2.291c1.55 0 2.56-0.5501 3.01-1.58l0.3691-0.8281c0.45-1.02-0.06914-1.58-1.619-1.58h-0.7402l1.059-2.4h-1.549zm5.5 0-2.83 6.389h1.561l2.818-6.389h-1.549zm-120.3 0.8398c0.5 0 0.7293 0.1789 0.5293 0.6289l-1.529 3.451c-0.2 0.46-0.5801 0.6289-1.08 0.6289-0.49 0-0.7312-0.1689-0.5312-0.6289l1.531-3.451c0.2-0.45 0.5901-0.6289 1.08-0.6289zm33.06 0c0.49 0 0.7295 0.1789 0.5195 0.6289l-1.52 3.451c-0.2 0.46-0.5901 0.6289-1.08 0.6289-0.5 0-0.7312-0.1689-0.5312-0.6289l1.52-3.451c0.2-0.45 0.5918-0.6289 1.092-0.6289zm51 0c0.49 0 0.7295 0.1789 0.5195 0.6289l-1.52 3.451c-0.2 0.46-0.5918 0.6289-1.092 0.6289-0.49 0-0.7195-0.1689-0.5195-0.6289l1.52-3.451c0.2-0.45 0.5918-0.6289 1.092-0.6289zm-78.47 0.08008h0.75c0.55 0 0.7 0.2004 0.5 0.6504l-0.1602 0.3594c-0.22 0.51-0.6505 0.6699-1.23 0.6699h-0.6094l0.75-1.68zm71.73 0h0.7285c0.5 0 0.7 0.1396 0.5 0.5996l-0.4199 0.9609c-0.21 0.45-0.5393 0.5996-1.029 0.5996h-0.7402l0.9609-2.16zm13.23 0h1.311l-2.02 4.58h-2.041c0.32-0.16 0.5606-0.3696 0.8106-0.8496l1.939-3.73zm-77.94 0.2188-0.6797 3.23h-1.5l2.18-3.23zm38.44 2.182h0.7402c0.49 0 0.7 0.1396 0.5 0.5996l-0.4297 0.959c-0.2 0.45-0.5293 0.6016-1.029 0.6016h-0.7305l0.9492-2.16zm63.88 0h0.7305c0.5 0 0.7 0.1396 0.5 0.5996l-0.4199 0.959c-0.2 0.45-0.5412 0.6016-1.031 0.6016h-0.7402l0.9609-2.16zm-110.5 0.1992h0.6895c0.71 0 0.9202 0.1795 0.6602 0.7695l-0.2402 0.5606c-0.21 0.47-0.5698 0.6309-1.09 0.6309h-0.8887l0.8691-1.961z" fill="#fff"/>
</svg>
