<svg width="171" height="50" viewBox="0 0 171 50" fill="none" xmlns="http://www.w3.org/2000/svg">
<path fill-rule="evenodd" clip-rule="evenodd" d="M120.221 27.998C119.654 29.7505 118.896 31.0205 117.947 31.808C116.991 32.6027 115.744 33 114.2 33H108.689C107.145 33 106.153 32.6027 105.707 31.808C105.268 31.0205 105.325 29.7505 105.891 27.998L108.477 20.002C109.043 18.2495 109.801 16.9795 110.75 16.1849C111.707 15.3973 112.953 15 114.497 15H120.008C121.552 15 122.544 15.3973 122.99 16.1849C123.429 16.9795 123.373 18.2495 122.806 20.002L120.221 27.998ZM124.662 31.9641C125.491 31.2688 126.135 30.3252 126.596 29.1261L130.498 18.7533H135.124L130.605 32.7517H134.571L140.224 15.2483H127.991L123.132 28.2464C123.011 28.5656 122.827 28.8352 122.572 29.0481C122.317 29.268 122.055 29.3745 121.772 29.3745H120.78L119.689 32.7517C119.909 32.8013 120.15 32.8368 120.405 32.8723C120.61 32.9078 120.851 32.9361 121.113 32.9645C121.375 32.9858 121.644 33 121.928 33C122.926 33 123.84 32.6523 124.662 31.9641ZM150.572 32.7517H146.598L148.9 25.6212H143.39L141.088 32.7517H137.121L142.774 15.2483H146.74L144.523 22.1234H150.034L152.251 15.2483H156.217L150.572 32.7517ZM165.355 32.7517H153.115L158.767 15.2483H171L169.874 18.7533H161.608L160.517 22.1234H167.019L165.886 25.6212H159.384L158.215 29.2467H166.481L165.355 32.7517ZM117.997 18.4978C118.882 18.4978 119.158 19.0016 118.839 20.002L116.254 27.998C115.928 28.9984 115.326 29.5022 114.448 29.5022H110.701C109.815 29.5022 109.539 28.9984 109.858 27.998L112.443 20.002C112.769 19.0016 113.371 18.4978 114.25 18.4978H117.997ZM102.321 20.2503C102.64 19.2499 102.364 18.7533 101.486 18.7533H97.7316L96.6053 22.2511H100.352C101.231 22.2511 101.833 21.7473 102.159 20.7469L102.321 20.2503ZM99.8849 25.7489C100.763 25.7489 101.046 26.2527 100.721 27.246L100.558 27.7497C100.239 28.7501 99.6369 29.2467 98.7515 29.2467H94.3458L95.472 25.7489H99.8849ZM94.8983 15.2483H103.717C105.155 15.2483 106.097 15.6244 106.529 16.3622C106.968 17.1072 106.94 18.2353 106.451 19.7536C106.125 20.7469 105.672 21.5629 105.091 22.1872C104.503 22.8116 103.894 23.2515 103.256 23.4998C103.547 23.5991 103.816 23.7552 104.071 23.9752C104.326 24.188 104.517 24.486 104.638 24.8479C104.765 25.2168 104.815 25.6638 104.801 26.1888C104.786 26.7138 104.666 27.3169 104.446 27.998C103.922 29.6299 103.193 30.8289 102.272 31.6023C101.344 32.3685 100.168 32.7517 98.7232 32.7517H89.2459L94.8983 15.2483ZM80.3211 26.3733H76.7937L80.4557 20.4986L80.3211 26.3733ZM72.7492 32.7517H68.4497L79.9457 15.2483H84.3514L84.5427 32.7517H80.2432L80.2644 29.6228H74.7537L72.7492 32.7517ZM63.4773 32.7517H67.4439L73.0963 15.2483H69.1297L66.9126 22.1234H61.3948L63.619 15.2483H59.6524L54 32.7517H57.9666L60.2686 25.6212H65.7793L63.4773 32.7517Z" fill="#00A0E3"/>
<path fill-rule="evenodd" clip-rule="evenodd" d="M69.8785 42.4672C68.7944 42.4672 68.3834 42.0642 68.7094 41.3675L69.7438 39.0997C70.0698 38.3962 70.8421 38 71.9191 38C73.0031 38 73.4141 38.3962 73.0952 39.0997L72.0537 41.3675C71.7348 42.0642 70.9554 42.4672 69.8785 42.4672ZM92.1267 41.3675C91.8079 42.0642 92.2188 42.4672 93.2958 42.4672C94.3799 42.4672 95.1522 42.0642 95.471 41.3675L96.5126 39.0997C96.8314 38.3962 96.4276 38 95.3435 38C94.2594 38 93.4871 38.3962 93.1683 39.0997L92.1267 41.3675ZM129.432 42.4672C128.347 42.4672 127.944 42.0642 128.262 41.3675L129.304 39.0997C129.623 38.3962 130.395 38 131.479 38C132.563 38 132.967 38.3962 132.648 39.0997L131.607 41.3675C131.288 42.0642 130.516 42.4672 129.432 42.4672ZM136.34 43L136.892 41.8046H136.411L138.132 38.0478H135.043L133.336 41.2377C133.201 41.4904 133.066 41.6544 132.804 41.8046H132.372L131.826 43H132.896L133.166 42.4126H135.518L135.249 43H136.34ZM143.347 38.0478H142.192L141.009 39.5437L140.279 40.5615L140.407 39.5437L140.492 38.0478H139.401L139.379 41.4153L139.351 41.4563C139.117 41.7705 138.763 41.832 138.217 41.8115L137.934 42.4194C139.436 42.4809 140.053 42.0915 140.669 41.306L143.347 38.0478ZM145.948 42.4126H144.814L144.538 40.6776L144.013 41.0738L143.404 42.4126H142.299L144.304 38.0478H145.402L144.531 39.9536L146.848 38.0478H147.946L145.523 39.9945L145.948 42.4126ZM148.335 38.6762H149.49L147.776 42.4126H148.874L150.589 38.6762H151.744L152.027 38.0478H148.619L148.335 38.6762ZM154.762 41.3333C154.443 42.0369 153.727 42.4126 152.629 42.4126H151.007L153.005 38.0478H154.103L153.352 39.6872H153.876C154.975 39.6872 155.343 40.0697 155.024 40.7664L154.762 41.3333ZM156.002 42.4126L158 38.0478H156.902L154.897 42.4126H156.002ZM152.388 41.791L153.069 40.3156H153.586C153.94 40.3156 154.082 40.4112 153.94 40.7254L153.642 41.3811C153.501 41.6885 153.26 41.791 152.913 41.791H152.388ZM136.722 38.6762H135.794L134.42 41.224C134.243 41.5519 134.072 41.6954 133.846 41.8046H135.291L136.722 38.6762ZM130.423 39.0519C130.565 38.7445 130.842 38.6216 131.196 38.6216C131.543 38.6216 131.713 38.7445 131.564 39.0519L130.487 41.4085C130.346 41.7227 130.069 41.8388 129.715 41.8388C129.368 41.8388 129.205 41.7227 129.347 41.4085L130.423 39.0519ZM127.292 39.0861C127.433 38.7719 127.292 38.6762 126.937 38.6762H126.42L125.74 40.1516H126.264C126.612 40.1516 126.845 40.0492 126.994 39.7418L127.292 39.0861ZM127.221 38.0478H125.598L123.6 42.4126H124.706L125.457 40.7732H125.974C127.079 40.7732 127.795 40.3975 128.114 39.694L128.376 39.127C128.695 38.4303 128.326 38.0478 127.221 38.0478ZM122.899 38.6762H121.645L119.93 42.4126H118.832L120.83 38.0478H124.309L122.304 42.4126H121.184L122.899 38.6762ZM114.857 38.6762H116.763L117.046 38.0478H114.042L112.037 42.4126H115.048L115.332 41.791H113.426L114.014 40.5137H115.523L115.813 39.8921H114.297L114.857 38.6762ZM112.745 38.0478L110.74 42.4126H109.642L111.64 38.0478H112.745ZM107.134 41.791L107.807 40.3156H108.331C108.678 40.3156 108.827 40.4112 108.685 40.7254L108.381 41.3811C108.239 41.6885 108.005 41.791 107.651 41.791H107.134ZM109.507 41.3333C109.181 42.0369 108.466 42.4126 107.367 42.4126H105.745L107.743 38.0478H108.848L108.097 39.6872H108.615C109.72 39.6872 110.081 40.0697 109.762 40.7664L109.507 41.3333ZM102.932 40.541H104.186L103.329 42.4126H104.448L106.446 38.0478H105.327L104.47 39.9194H103.215L104.073 38.0478H102.975L100.969 42.4126H102.075L102.932 40.541ZM99.4105 40.541H98.1564L97.2991 42.4126H96.2008L98.1989 38.0478H99.3043L98.4469 39.9194H99.694L100.551 38.0478H101.678L99.6727 42.4126H98.5532L99.4105 40.541ZM95.0601 38.6216C94.7058 38.6216 94.4295 38.7445 94.2878 39.0519L93.2108 41.4085C93.0691 41.7227 93.232 41.8388 93.5863 41.8388C93.9335 41.8388 94.2098 41.7227 94.3515 41.4085L95.4285 39.0519C95.5773 38.7445 95.4073 38.6216 95.0601 38.6216ZM89.9373 40.4112L90.8797 39.3388L89.4697 42.4126H90.4616L92.4597 38.0478H91.2481L89.5193 39.8511L88.6832 40.8142L89.9444 38.0478H88.9666L86.9685 42.4126H88.0951L89.9373 40.4112ZM84.8004 42.4126H81.9095L83.9147 38.0478H85.0129L83.2983 41.791H84.5524L86.2671 38.0478H87.3866L85.6719 41.8046H86.1466L85.601 43H84.5311L84.8004 42.4126ZM80.5704 38.8265L80.0886 41.0328H79.0258L80.5704 38.8265ZM80.1736 38.0478H81.782L80.9034 42.4126H79.791L79.9681 41.6202H78.6148L78.0621 42.4126H77.0489L80.1736 38.0478ZM76.1278 38.6762C76.5175 38.6762 76.6238 38.8128 76.4821 39.1202L76.3687 39.3661C76.2128 39.7145 75.9082 39.8238 75.4972 39.8238H75.065L75.5964 38.6762H76.1278ZM75.7381 40.9781C75.9223 40.5751 75.7735 40.4522 75.2705 40.4522H74.7816L74.1651 41.791H74.7957C75.1642 41.791 75.4193 41.6817 75.5681 41.3607L75.7381 40.9781ZM74.7816 38.0478L72.7764 42.4126H74.5123C75.6106 42.4126 76.3475 42.0505 76.6592 41.3811L76.8222 41.026C77.0347 40.5615 76.9568 40.2336 76.4254 40.0902C76.9851 39.9467 77.3394 39.6598 77.5449 39.209L77.6158 39.0519C77.9204 38.3825 77.5803 38.0478 76.4396 38.0478H74.7816ZM70.8704 39.0519C71.0121 38.7445 71.2885 38.6216 71.6356 38.6216C71.9899 38.6216 72.1529 38.7445 72.0112 39.0519L70.9271 41.4085C70.7854 41.7227 70.5161 41.8388 70.1619 41.8388C69.8147 41.8388 69.6446 41.7227 69.7863 41.4085L70.8704 39.0519ZM66.7538 40.541H65.5067L64.6423 42.4126H63.5441L65.5422 38.0478H66.6475L65.7902 39.9194H67.0443L67.9016 38.0478H69.0211L67.023 42.4126H65.8964L66.7538 40.541ZM60.7312 40.541H61.9853L61.1279 42.4126H62.2474L64.2455 38.0478H63.126L62.2687 39.9194H61.0146L61.8719 38.0478H60.7737L58.7685 42.4126H59.8738L60.7312 40.541ZM57.9112 39.3388L56.9688 40.4112L55.1337 42.4126H54L55.9981 38.0478H56.983L55.7147 40.8142L56.5578 39.8511L58.2867 38.0478H59.4983L57.4931 42.4126H56.5012L57.9112 39.3388Z" fill="#00A0E3"/>
<path fill-rule="evenodd" clip-rule="evenodd" d="M3.51985 14.6846V14.6776C11.5477 4.90058 27.9075 2.08028 36.647 12.3935C38.3949 14.4548 39.7352 17.0105 40.5435 19.594C41.5176 22.7207 41.8147 26.2653 40.7093 29.4059C40.6264 29.6636 40.578 30.3878 41.2551 30.6106C41.6489 30.736 41.9943 30.5619 42.1947 30.3739C42.4121 30.1672 42.4675 30 42.5619 29.7151C42.5725 29.6832 42.5835 29.6499 42.5954 29.6148C43.6731 26.1956 43.3691 22.4213 42.3121 19.0369C41.4278 16.2097 39.9632 13.4381 38.0564 11.1819C28.3566 -0.266498 10.9191 3.35464 3.09151 12.3935C2.95999 12.5471 2.81806 12.6953 2.67528 12.8445C2.53307 12.993 2.39001 13.1425 2.25556 13.2988C1.99303 13.6122 1.50251 14.3364 2.16575 14.8796C2.87043 15.4576 3.49912 14.7125 3.51985 14.6846ZM31.4309 10.6874C35.2929 12.9089 37.6833 16.2723 38.5745 20.4645C38.6298 20.7361 38.6989 21.4603 37.8422 21.6135L37.7317 21.6274C36.9164 21.6971 36.7644 20.8545 36.7644 20.8545C36.0252 17.3726 34.1253 14.5662 31.0233 12.6164L31.0095 12.6303C29.0198 11.3838 25.7589 9.94928 21.5239 10.1652C21.5182 10.1652 21.5101 10.1663 21.5006 10.1677C21.4872 10.1697 21.471 10.1721 21.4548 10.1721C19.6378 10.2696 18.035 10.5482 16.6464 10.9172C16.3838 10.9033 15.9486 10.7919 15.8104 10.1721C15.6377 9.3504 16.2871 9.09274 16.4045 9.05792C18.2353 8.54261 20.3149 8.18746 22.5256 8.22228H22.6155C23.5619 8.19442 24.6397 8.34066 25.6138 8.53564C27.0301 8.80026 28.3013 9.20416 29.4343 9.70555C30.1183 9.99106 30.7884 10.3184 31.4309 10.6874ZM9.29551 29.3989L9.30242 29.3641C9.44059 27.9226 9.79294 26.509 10.3525 25.1929C11.755 21.9129 14.3043 19.5871 17.6343 18.3197C17.8692 18.2291 18.1041 18.1456 18.339 18.062C20.0661 17.5119 23.7278 16.7111 27.4792 18.257C27.4792 18.257 28.3566 18.5147 28.7227 17.8392C29.0889 17.1567 28.2806 16.6762 28.2737 16.6762C24.7019 15.193 20.5912 15.2626 16.9918 16.6344C13.2058 18.0759 10.2835 20.757 8.68755 24.4895C8.07958 25.9101 7.6927 27.4352 7.51998 28.9811V29.002C7.51652 29.0438 7.51134 29.0856 7.50616 29.1274C7.50098 29.1691 7.4958 29.2109 7.49234 29.2527C7.4578 29.768 7.55452 30.3042 8.32829 30.3599C9.13661 30.4156 9.27479 29.58 9.29551 29.3989ZM37.9873 25.7917C37.0615 25.7708 37.103 26.9338 37.103 26.9338H37.0961C37.0132 35.5618 28.55 41.5089 22.8918 39.2108C23.0852 38.6885 23.1405 38.1106 23.0369 37.5256C22.726 35.7429 21.0472 34.5591 19.2786 34.8724C17.5168 35.1858 16.3355 36.878 16.6464 38.6607C16.9572 40.4364 18.643 41.6272 20.4047 41.3139C20.909 41.2233 21.365 41.0214 21.7519 40.7359C28.8333 44.4197 39.0581 36.8501 38.9476 26.6901C38.9269 26.5299 38.8094 25.8057 37.9873 25.7917ZM13.3855 40.8403C13.9727 41.4183 14.6083 41.9615 15.2784 42.435C15.4719 42.5673 15.686 42.7136 15.8933 42.8389C15.9059 42.8469 15.9203 42.8557 15.9361 42.8653C16.1965 43.0248 16.8426 43.4205 16.4322 44.169C16.0038 44.942 15.2301 44.5381 15.2093 44.5241C14.8777 44.3431 14.5461 44.1203 14.2352 43.9044C13.4822 43.3751 12.7706 42.7763 12.1143 42.1286C10.0624 40.1022 8.5701 37.6231 7.88614 34.8167C7.88268 34.8028 7.88096 34.7889 7.87923 34.7749C7.8775 34.761 7.87578 34.7471 7.87232 34.7332C7.86541 34.7262 7.86541 34.7192 7.86541 34.7053C7.86196 34.6879 7.85678 34.6722 7.8516 34.6566C7.84641 34.6409 7.84123 34.6252 7.83778 34.6078C7.73415 34.1134 7.80324 33.5981 8.57701 33.4449C9.37151 33.2847 9.57186 34.0646 9.58568 34.1273C9.6064 34.2178 9.62713 34.3084 9.64785 34.3919C10.2489 36.871 11.5754 39.0576 13.3855 40.8403ZM30.823 50.6731L30.6641 50.7358C29.1234 51.2998 27.5068 51.6968 25.8902 51.9196C20.7777 52.6299 15.8726 51.5714 11.5408 48.7093C6.88438 45.6314 3.62348 41.1676 2.37992 35.6733C1.38507 31.2513 1.77195 26.2792 3.74093 22.1706C5.02594 19.4965 6.76693 16.7807 9.01916 14.8308C9.41296 14.4896 9.8413 14.1554 10.2835 13.8699C10.2835 13.8699 10.8638 13.3476 10.47 12.6651C10.0831 11.9966 9.4475 12.1846 9.18497 12.3587C8.67373 12.7069 8.19012 13.083 7.81014 13.4172C5.35756 15.5342 3.47149 18.445 2.07594 21.3559C-0.0795739 25.8475 -0.514821 31.2513 0.576751 36.0911C1.92394 42.052 5.4681 46.9336 10.5253 50.2692C15.2301 53.375 20.5843 54.538 26.1389 53.772C27.8937 53.5282 29.6347 53.0965 31.2928 52.4906L31.3964 52.4489C31.956 53.1383 32.861 53.5073 33.7937 53.3472C35.1685 53.0965 36.0943 51.7734 35.8456 50.3876C35.6038 48.9949 34.2911 48.0687 32.9163 48.3124C31.7349 48.5213 30.8921 49.5241 30.823 50.6731ZM3.94819 34.0159C2.97406 27.658 4.41107 21.7946 9.13661 17.3378C12.4182 14.2389 17.1507 12.1637 21.821 12.0314C22.0075 12.0314 23.0231 12.0662 23.1129 12.9158C23.2027 13.7236 22.1526 13.835 21.8555 13.8559H21.814H21.7795C17.5928 14.0579 13.3025 15.959 10.4009 18.6957C6.12442 22.7347 4.89468 27.9923 5.77208 33.7304C6.67021 39.5451 9.66167 44.0436 14.9675 46.5784C16.6394 47.3793 18.4495 47.9364 20.2665 48.2497C20.9505 48.3681 21.7311 48.4795 22.4427 48.5074C22.5464 48.5074 23.5274 48.5213 23.5205 49.4545C23.5067 50.3876 22.5809 50.3737 22.5809 50.3737C21.7311 50.3667 20.7847 50.2344 19.9487 50.0882C17.9659 49.7469 15.9969 49.1341 14.173 48.2637C8.30757 45.4642 4.92922 40.4434 3.94819 34.0159Z" fill="#00A0E3"/>
</svg>
