<svg width="179.1" height="43.38" version="1.1" viewBox="0 0 179.1 43.38" preserveAspectRatio="none" xmlns="http://www.w3.org/2000/svg">
 <path id="Shape" d="m170.5 3.8e-7v0.5234h1.439v3.678h0.5938v-3.678h1.439v-0.5234zm4.133 0v4.201h0.5762v-3.043l1.518 2.533h0.2754l1.52-2.551 6e-3 3.061h0.5762l-6e-3 -4.201h-0.4922l-1.729 2.953-1.752-2.953zm-89.19 2.881c-2.18-1e-7 -3.941 0.5599-5.291 1.67-1.34 1.12-2.409 2.911-3.209 5.381l-3.65 11.27c-0.8 2.47-0.8798 4.261-0.2598 5.371 0.63 1.12 2.029 1.68 4.209 1.68h7.781c2.18 0 3.939-0.5597 5.289-1.68 1.34-1.11 2.411-2.901 3.211-5.371l3.648-11.27c0.8-2.47 0.8798-4.261 0.2598-5.381-0.63-1.11-2.029-1.67-4.209-1.67zm-77.43 0.3516-7.979 24.67h5.6l3.25-10.05h7.779l-3.25 10.05h5.6l7.98-24.67h-5.6l-3.131 9.689h-7.789l3.141-9.689zm28.65 0-16.23 24.67h6.07l2.83-4.41h7.781l-0.03125 4.41h6.07l-0.2695-24.67zm21.11 0-7.98 24.67h13.38c2.04 0 3.7-0.5411 5.01-1.621 1.3-1.09 2.33-2.78 3.07-5.08 0.31-0.96 0.48-1.809 0.5-2.549s-0.04852-1.371-0.2285-1.891c-0.17-0.51-0.4408-0.9305-0.8008-1.23-0.36-0.31-0.7404-0.5299-1.15-0.6699 0.9-0.35 1.76-0.9696 2.59-1.85 0.82-0.88 1.46-2.03 1.92-3.43 0.69-2.14 0.7313-3.731 0.1113-4.781-0.61-1.04-1.941-1.568-3.971-1.568zm46.72 0-6.859 18.32c-0.17 0.45-0.431 0.8309-0.791 1.131-0.36 0.31-0.7289 0.4609-1.129 0.4609h-1.4l-1.539 4.76c0.31 0.07 0.6498 0.1199 1.01 0.1699 0.29 0.05 0.63 0.08891 1 0.1289 0.37 0.03 0.7484 0.05078 1.148 0.05078 1.41 0 2.701-0.4909 3.861-1.461 1.17-0.98 2.08-2.31 2.73-4l5.51-14.62h6.529l-6.381 19.73h5.602l7.979-24.67zm20.87 0-7.98 24.67h5.6l3.25-10.05h7.779l-3.25 10.05h5.611l7.969-24.67h-5.6l-3.129 9.689h-7.781l3.131-9.689zm22.58 0-7.98 24.67h17.28l1.59-4.941h-11.67l1.65-5.109h9.18l1.6-4.93h-9.18l1.541-4.75h11.67l1.59-4.939zm-62.85 4.58h5.291c1.25 0 1.639 0.7091 1.189 2.119l-3.65 11.27c-0.46 1.41-1.309 2.121-2.549 2.121h-5.291c-1.25 0-1.639-0.7111-1.189-2.121l3.65-11.27c0.46-1.41 1.309-2.119 2.549-2.119zm-23.32 0.3594h5.299c1.24 0 1.63 0.6994 1.18 2.109l-0.2285 0.7012c-0.46 1.41-1.311 2.119-2.551 2.119h-5.291zm-24.39 2.459-0.1895 8.281h-4.98zm21.2 7.4h6.23c1.24 0 1.64 0.7113 1.18 2.111l-0.2305 0.709c-0.45 1.41-1.299 2.109-2.549 2.109h-6.221zm-29 18.03c-1.52 0-2.61 0.5794-3.07 1.609l-1.459 3.32c-0.46 1.02 0.1204 1.609 1.65 1.609 1.52 0 2.62-0.5894 3.07-1.609l1.469-3.32c0.45-1.03-0.1302-1.609-1.66-1.609zm33.06 0c-1.53 0-2.62 0.5794-3.07 1.609l-1.469 3.32c-0.45 1.02 0.1284 1.609 1.648 1.609 1.53 0 2.62-0.5894 3.07-1.609l1.471-3.32c0.45-1.03-0.1204-1.609-1.65-1.609zm51 0c-1.53 0-2.62 0.5794-3.07 1.609l-1.469 3.32c-0.45 1.02 0.1184 1.609 1.648 1.609 1.53 0 2.62-0.5894 3.07-1.609l1.471-3.32c0.45-1.03-0.1204-1.609-1.65-1.609zm-106.5 0.06836-2.82 6.391h1.6l2.59-2.93 1.33-1.57-1.99 4.5h1.4l2.83-6.391h-1.711l-2.439 2.641-1.189 1.41 1.789-4.051zm6.74 0-2.83 6.391h1.559l1.211-2.74h1.77l-1.209 2.74h1.578l2.82-6.391h-1.58l-1.209 2.74h-1.77l1.209-2.74zm6.729 0-2.82 6.391h1.551l1.221-2.74h1.76l-1.211 2.74h1.59l2.82-6.391h-1.58l-1.209 2.74h-1.771l1.211-2.74zm13.04 0-2.83 6.391h2.449c1.55 0 2.591-0.5298 3.031-1.51l0.2285-0.5195c0.3-0.68 0.1914-1.161-0.5586-1.371 0.79-0.21 1.29-0.6291 1.58-1.289l0.09961-0.2305c0.43-0.98-0.05016-1.471-1.66-1.471zm7.609 0-4.41 6.391h1.43l0.7812-1.16h1.91l-0.25 1.16h1.568l1.24-6.391zm5.279 0-2.83 6.391h4.08l-0.3789 0.8594h1.51l0.7695-1.75h-0.6699l2.42-5.5h-1.58l-2.42 5.48h-1.77l2.42-5.48zm7.131 0-2.82 6.391h1.59l2.6-2.93 1.33-1.57-1.988 4.5h1.398l2.82-6.391h-1.709l-2.441 2.641-1.18 1.41 1.781-4.051zm13.03 0-2.818 6.391h1.549l1.211-2.74h1.77l-1.211 2.74h1.58l2.83-6.391h-1.59l-1.209 2.74h-1.76l1.209-2.74zm6.74 0-2.83 6.391h1.561l1.211-2.74h1.77l-1.211 2.74h1.58l2.82-6.391h-1.58l-1.209 2.74h-1.771l1.211-2.74zm6.73 0-2.82 6.391h2.291c1.55 0 2.56-0.5501 3.02-1.58l0.3594-0.8301c0.45-1.02-0.05914-1.58-1.619-1.58h-0.7305l1.061-2.4zm5.5 0-2.82 6.391h1.551l2.83-6.391zm3.391 0-2.83 6.391h4.25l0.4004-0.9102h-2.691l0.8301-1.869h2.131l0.4102-0.9102h-2.141l0.7891-1.781h2.691l0.4004-0.9199zm9.58 0-2.82 6.391h1.549l2.42-5.471h1.771l-2.42 5.471h1.58l2.83-6.391zm6.729 0-2.818 6.391h1.559l1.061-2.4h0.7305c1.56 0 2.57-0.5501 3.02-1.58l0.3691-0.8301c0.45-1.02-0.0689-1.58-1.629-1.58zm13.33 0-2.41 4.67c-0.19 0.37-0.38 0.6101-0.75 0.8301h-0.6094l-0.7695 1.75h1.51l0.3809-0.8594h3.318l-0.3789 0.8594h1.539l0.7812-1.75h-0.6797l2.43-5.5zm6.15 0-0.0293 4.932-0.041 0.05859c-0.33 0.46-0.8296 0.5515-1.6 0.5215l-0.4004 0.8887c2.12 0.09 2.991-0.4789 3.861-1.629l3.779-4.771h-1.631l-1.67 2.191-1.029 1.49 0.1797-1.49 0.1211-2.191zm6.92 0-2.83 6.391h1.561l0.8594-1.959 0.7402-0.5801 0.3906 2.539h1.6l-0.5996-3.539 3.42-2.852h-1.551l-3.27 2.791 1.23-2.791zm6.09 0-0.4004 0.9199h1.631l-2.42 5.471h1.551l2.42-5.471h1.629l0.4004-0.9199zm6.191 0-2.82 6.391h2.289c1.55 0 2.56-0.5501 3.01-1.58l0.3711-0.8301c0.45-1.02-0.0711-1.58-1.621-1.58h-0.7402l1.061-2.4zm5.5 0-2.83 6.391h1.559l2.82-6.391zm-120.3 0.8398c0.5 0 0.7312 0.1809 0.5312 0.6309l-1.531 3.449c-0.2 0.46-0.5781 0.6309-1.078 0.6309-0.49 0-0.7312-0.1709-0.5312-0.6309l1.531-3.449c0.2-0.45 0.5881-0.6309 1.078-0.6309zm33.06 0c0.49 0 0.7295 0.1809 0.5195 0.6309l-1.52 3.449c-0.2 0.46-0.5901 0.6309-1.08 0.6309-0.5 0-0.7293-0.1709-0.5293-0.6309l1.52-3.449c0.2-0.45 0.5898-0.6309 1.09-0.6309zm51 0c0.49 0 0.7295 0.1809 0.5195 0.6309l-1.52 3.449c-0.2 0.46-0.5898 0.6309-1.09 0.6309-0.49 0-0.7195-0.1709-0.5196-0.6309l1.52-3.449c0.2-0.45 0.5898-0.6309 1.09-0.6309zm-78.47 0.08008h0.75c0.55 0 0.7 0.2004 0.5 0.6504l-0.1602 0.3613c-0.22 0.51-0.6505 0.6699-1.23 0.6699h-0.6094zm71.73 0h0.7304c0.5 0 0.7 0.1416 0.5 0.6016l-0.4199 0.959c-0.21 0.45-0.5393 0.5996-1.029 0.5996h-0.7402zm13.23 0h1.311l-2.02 4.58h-2.041c0.32-0.16 0.5606-0.3696 0.8106-0.8496zm-77.94 0.2207-0.6797 3.23h-1.5zm38.44 2.18h0.7402c0.49 0 0.7 0.1396 0.5 0.5996l-0.4297 0.9609c-0.2 0.45-0.5312 0.5996-1.031 0.5996h-0.7285zm63.88 0h0.7285c0.5 0 0.7 0.1396 0.5 0.5996l-0.4199 0.9609c-0.2 0.45-0.5393 0.5996-1.029 0.5996h-0.7402zm-110.5 0.2012h0.6895c0.71 0 0.9202 0.1795 0.6602 0.7695l-0.2402 0.5605c-0.21 0.47-0.5698 0.6289-1.09 0.6289h-0.8906z" fill="#00a0e3"/>
</svg>
