<svg width="166" height="122" viewBox="0 0 166 122" fill="none" xmlns="http://www.w3.org/2000/svg">
<path fill-rule="evenodd" clip-rule="evenodd" d="M58.74 15.3432V15.3332C70.36 1.29325 94.04 -2.75675 106.69 12.0532C109.22 15.0132 111.16 18.6832 112.33 22.3932C113.74 26.8832 114.17 31.9732 112.57 36.4832C112.45 36.8532 112.38 37.8932 113.36 38.2132C113.93 38.3932 114.43 38.1432 114.72 37.8732C115.035 37.5765 115.115 37.3363 115.252 36.9272C115.267 36.8815 115.283 36.8336 115.3 36.7832C116.86 31.8732 116.42 26.4532 114.89 21.5932C113.61 17.5332 111.49 13.5532 108.73 10.3132C94.69 -6.12675 69.45 -0.926751 58.12 12.0532C57.9296 12.2737 57.7242 12.4866 57.5175 12.7008C57.3117 12.9141 57.1046 13.1287 56.91 13.3532C56.53 13.8032 55.82 14.8432 56.78 15.6232C57.8 16.4532 58.71 15.3832 58.74 15.3432ZM99.14 9.60325C104.73 12.7932 108.19 17.6232 109.48 23.6432C109.56 24.0332 109.66 25.0732 108.42 25.2932L108.26 25.3132C107.08 25.4132 106.86 24.2032 106.86 24.2032C105.79 19.2032 103.04 15.1732 98.55 12.3732L98.53 12.3932C95.65 10.6032 90.93 8.54325 84.8 8.85325C84.7917 8.85325 84.78 8.85496 84.7663 8.85697C84.7469 8.85982 84.7234 8.86325 84.7 8.86325C82.07 9.00325 79.75 9.40325 77.74 9.93325C77.36 9.91325 76.73 9.75325 76.53 8.86325C76.28 7.68325 77.22 7.31325 77.39 7.26325C80.04 6.52325 83.05 6.01325 86.25 6.06325H86.38C87.75 6.02325 89.31 6.23325 90.72 6.51325C92.77 6.89325 94.61 7.47325 96.25 8.19325C97.24 8.60325 98.21 9.07325 99.14 9.60325ZM67.11 36.4232L67.1 36.4732C67.07 36.7332 66.87 37.9333 65.7 37.8532C64.58 37.7732 64.44 37.0033 64.49 36.2632C64.495 36.2032 64.5025 36.1432 64.51 36.0832C64.5175 36.0232 64.525 35.9632 64.53 35.9032V35.8732C64.78 33.6532 65.34 31.4632 66.22 29.4232C68.53 24.0632 72.76 20.2132 78.24 18.1432C83.45 16.1732 89.4 16.0732 94.57 18.2032C94.58 18.2032 95.75 18.8932 95.22 19.8732C94.69 20.8432 93.42 20.4732 93.42 20.4732C87.99 18.2532 82.69 19.4032 80.19 20.1932C79.85 20.3132 79.51 20.4332 79.17 20.5632C74.35 22.3832 70.66 25.7232 68.63 30.4332C67.82 32.3232 67.31 34.3532 67.11 36.4232ZM93.49 99.4132C92.69 101.883 91.62 103.673 90.28 104.783C88.93 105.903 87.17 106.463 84.99 106.463H77.21C75.03 106.463 73.63 105.903 73 104.783C72.38 103.673 72.46 101.883 73.26 99.4132L76.91 88.1432C77.71 85.6732 78.78 83.8832 80.12 82.7632C81.47 81.6532 83.23 81.0932 85.41 81.0932H93.19C95.37 81.0932 96.77 81.6532 97.4 82.7632C98.02 83.8832 97.94 85.6732 97.14 88.1432L93.49 99.4132ZM99.76 105.003C100.93 104.023 101.84 102.693 102.49 101.003L108 86.3832H114.53L108.15 106.113H113.75L121.73 81.4432H104.46L97.6 99.7632C97.43 100.213 97.17 100.593 96.81 100.893C96.45 101.203 96.08 101.353 95.68 101.353H94.28L92.74 106.113C93.05 106.183 93.39 106.233 93.75 106.283C94.04 106.333 94.38 106.373 94.75 106.413C95.12 106.443 95.5 106.463 95.9 106.463C97.31 106.463 98.6 105.973 99.76 105.003ZM136.34 106.113H130.73L133.98 96.0632H126.2L122.95 106.113H117.35L125.33 81.4432H130.93L127.8 91.1332H135.58L138.71 81.4432H144.31L136.34 106.113ZM157.21 106.113H139.93L147.91 81.4432H165.18L163.59 86.3832H151.92L150.38 91.1332H159.56L157.96 96.0632H148.78L147.13 101.173H158.8L157.21 106.113ZM90.35 86.0232C91.6 86.0232 91.99 86.7332 91.54 88.1432L87.89 99.4132C87.43 100.823 86.58 101.533 85.34 101.533H80.05C78.8 101.533 78.41 100.823 78.86 99.4132L82.51 88.1432C82.97 86.7332 83.82 86.0232 85.06 86.0232H90.35ZM68.22 88.4932C68.67 87.0832 68.28 86.3832 67.04 86.3832H61.74L60.15 91.3132H65.44C66.68 91.3132 67.53 90.6032 67.99 89.1932L68.22 88.4932ZM64.78 96.2432C66.02 96.2432 66.42 96.9532 65.96 98.3532L65.73 99.0632C65.28 100.473 64.43 101.173 63.18 101.173H56.96L58.55 96.2432H64.78ZM57.74 81.4432H70.19C72.22 81.4432 73.55 81.9732 74.16 83.0132C74.78 84.0632 74.74 85.6532 74.05 87.7932C73.59 89.1932 72.95 90.3432 72.13 91.2232C71.3 92.1032 70.44 92.7232 69.54 93.0732C69.95 93.2132 70.33 93.4332 70.69 93.7432C71.05 94.0432 71.32 94.4632 71.49 94.9732C71.67 95.4932 71.74 96.1232 71.72 96.8632C71.7 97.6032 71.53 98.4532 71.22 99.4132C70.48 101.713 69.45 103.403 68.15 104.493C66.84 105.573 65.18 106.113 63.14 106.113H49.76L57.74 81.4432ZM37.16 97.1232H32.18L37.35 88.8432L37.16 97.1232ZM26.47 106.113H20.4L36.63 81.4432H42.85L43.12 106.113H37.05L37.08 101.703H29.3L26.47 106.113ZM151.04 114.343L148.22 120.733H146.66L149.49 114.343H151.04ZM143.12 119.823L144.08 117.663H144.81C145.31 117.663 145.51 117.803 145.31 118.263L144.89 119.223C144.69 119.673 144.35 119.823 143.86 119.823H143.12ZM146.47 119.153C146.02 120.183 145.01 120.733 143.46 120.733H141.17L143.99 114.343H145.54L144.48 116.743H145.22C146.77 116.743 147.29 117.303 146.84 118.323L146.47 119.153ZM137.4 115.263H139.03L136.61 120.733H138.16L140.58 115.263H142.21L142.61 114.343H137.8L137.4 115.263ZM134.03 120.733H132.43L132.04 118.193L131.3 118.773L130.44 120.733H128.88L131.71 114.343H133.26L132.03 117.133L135.3 114.343H136.85L133.43 117.193L134.03 120.733ZM130.36 114.343H128.73L127.06 116.533L126.03 118.023L126.21 116.533L126.33 114.343H124.79L124.76 119.273L124.72 119.333C124.39 119.793 123.89 119.883 123.12 119.853L122.72 120.743C124.84 120.833 125.71 120.263 126.58 119.113L130.36 114.343ZM121.01 115.263H119.7L117.76 118.993C117.51 119.473 117.27 119.683 116.95 119.843H118.99L121.01 115.263ZM120.47 121.593L121.25 119.843H120.57L123 114.343H118.64L116.23 119.013C116.04 119.383 115.85 119.623 115.48 119.843H114.87L114.1 121.593H115.61L115.99 120.733H119.31L118.93 121.593H120.47ZM110.72 120.813C109.19 120.813 108.62 120.223 109.07 119.203L110.54 115.883C110.99 114.853 112.08 114.273 113.61 114.273C115.14 114.273 115.71 114.853 115.26 115.883L113.79 119.203C113.34 120.223 112.25 120.813 110.72 120.813ZM112.12 115.813C112.32 115.363 112.71 115.183 113.21 115.183C113.7 115.183 113.94 115.363 113.73 115.813L112.21 119.263C112.01 119.723 111.62 119.893 111.12 119.893C110.63 119.893 110.4 119.723 110.6 119.263L112.12 115.813ZM107.7 115.863C107.9 115.403 107.7 115.263 107.2 115.263H106.47L105.51 117.423H106.25C106.74 117.423 107.07 117.273 107.28 116.823L107.7 115.863ZM107.6 114.343H105.31L102.49 120.733H104.05L105.11 118.333H105.84C107.4 118.333 108.41 117.783 108.86 116.753L109.23 115.923C109.68 114.903 109.16 114.343 107.6 114.343ZM101.5 115.263H99.73L97.31 120.733H95.76L98.58 114.343H103.49L100.66 120.733H99.08L101.5 115.263ZM90.15 115.263H92.84L93.24 114.343H89L86.17 120.733H90.42L90.82 119.823H88.13L88.96 117.953H91.09L91.5 117.043H89.36L90.15 115.263ZM87.17 114.343L84.34 120.733H82.79L85.61 114.343H87.17ZM79.25 119.823L80.2 117.663H80.94C81.43 117.663 81.64 117.803 81.44 118.263L81.01 119.223C80.81 119.673 80.48 119.823 79.98 119.823H79.25ZM82.6 119.153C82.14 120.183 81.13 120.733 79.58 120.733H77.29L80.11 114.343H81.67L80.61 116.743H81.34C82.9 116.743 83.41 117.303 82.96 118.323L82.6 119.153ZM73.32 117.993H75.09L73.88 120.733H75.46L78.28 114.343H76.7L75.49 117.083H73.72L74.93 114.343H73.38L70.55 120.733H72.11L73.32 117.993ZM68.35 117.993H66.58L65.37 120.733H63.82L66.64 114.343H68.2L66.99 117.083H68.75L69.96 114.343H71.55L68.72 120.733H67.14L68.35 117.993ZM58.07 119.203C57.62 120.223 58.2 120.813 59.72 120.813C61.25 120.813 62.34 120.223 62.79 119.203L64.26 115.883C64.71 114.853 64.14 114.273 62.61 114.273C61.08 114.273 59.99 114.853 59.54 115.883L58.07 119.203ZM62.21 115.183C61.71 115.183 61.32 115.363 61.12 115.813L59.6 119.263C59.4 119.723 59.63 119.893 60.13 119.893C60.62 119.893 61.01 119.723 61.21 119.263L62.73 115.813C62.94 115.363 62.7 115.183 62.21 115.183ZM54.98 117.803L56.31 116.233L54.32 120.733H55.72L58.54 114.343H56.83L54.39 116.983L53.21 118.393L54.99 114.343H53.61L50.79 120.733H52.38L54.98 117.803ZM47.73 120.733H43.65L46.48 114.343H48.03L45.61 119.823H47.38L49.8 114.343H51.38L48.96 119.843H49.63L48.86 121.593H47.35L47.73 120.733ZM41.76 115.483L41.08 118.713H39.58L41.76 115.483ZM41.2 114.343H43.47L42.23 120.733H40.66L40.91 119.573H39L38.22 120.733H36.79L41.2 114.343ZM35.49 115.263C36.04 115.263 36.19 115.463 35.99 115.913L35.83 116.273C35.61 116.783 35.18 116.943 34.6 116.943H33.99L34.74 115.263H35.49ZM34.94 118.633C35.2 118.043 34.99 117.863 34.28 117.863H33.59L32.72 119.823H33.61C34.13 119.823 34.49 119.663 34.7 119.193L34.94 118.633ZM35.93 114.343H33.59L30.76 120.733H33.21C34.76 120.733 35.8 120.203 36.24 119.223L36.47 118.703C36.77 118.023 36.66 117.543 35.91 117.333C36.7 117.123 37.2 116.703 37.49 116.043L37.59 115.813C38.02 114.833 37.54 114.343 35.93 114.343ZM26.67 120.813C25.14 120.813 24.56 120.223 25.02 119.203L26.48 115.883C26.94 114.853 28.03 114.273 29.55 114.273C31.08 114.273 31.66 114.853 31.21 115.883L29.74 119.203C29.29 120.223 28.19 120.813 26.67 120.813ZM28.07 115.813C28.27 115.363 28.66 115.183 29.15 115.183C29.65 115.183 29.88 115.363 29.68 115.813L28.15 119.263C27.95 119.723 27.57 119.893 27.07 119.893C26.58 119.893 26.34 119.723 26.54 119.263L28.07 115.813ZM22.26 117.993H20.5L19.28 120.733H17.73L20.55 114.343H22.11L20.9 117.083H22.67L23.88 114.343H25.46L22.64 120.733H21.05L22.26 117.993ZM13.76 117.993H15.53L14.32 120.733H15.9L18.72 114.343H17.14L15.93 117.083H14.16L15.37 114.343H13.82L10.99 120.733H12.55L13.76 117.993ZM108.63 31.2932C107.29 31.2632 107.35 32.9332 107.35 32.9332H107.34C107.22 45.3232 94.97 53.8632 86.78 50.5632C87.06 49.8132 87.14 48.9832 86.99 48.1432C86.54 45.5832 84.11 43.8832 81.55 44.3332C79 44.7832 77.29 47.2132 77.74 49.7732C78.19 52.3232 80.63 54.0332 83.18 53.5832C83.91 53.4532 84.57 53.1632 85.13 52.7533C95.38 58.0432 110.18 47.1732 110.02 32.5832C109.99 32.3532 109.82 31.3132 108.63 31.2932ZM75.76 55.1932C76.04 55.3833 76.35 55.5933 76.65 55.7733C76.6683 55.7847 76.6891 55.7973 76.7119 55.8112C77.0889 56.0402 78.024 56.6084 77.43 57.6833C76.81 58.7933 75.69 58.2132 75.66 58.1932C75.18 57.9333 74.7 57.6133 74.25 57.3032C73.16 56.5433 72.13 55.6833 71.18 54.7533C68.21 51.8433 66.05 48.2832 65.06 44.2533C65.055 44.2333 65.0525 44.2133 65.05 44.1933C65.0475 44.1733 65.045 44.1533 65.04 44.1333C65.03 44.1232 65.03 44.1133 65.03 44.0933C65.025 44.0683 65.0175 44.0458 65.01 44.0233C65.0025 44.0007 64.995 43.9782 64.99 43.9533C64.84 43.2432 64.94 42.5033 66.06 42.2832C67.21 42.0532 67.5 43.1732 67.52 43.2632L67.5203 43.2645C67.5502 43.3941 67.5801 43.5236 67.61 43.6432C68.48 47.2033 70.4 50.3433 73.02 52.9033C73.87 53.7332 74.79 54.5132 75.76 55.1932ZM98.26 67.0232L98.03 67.1133C95.8 67.9232 93.46 68.4932 91.12 68.8132C83.72 69.8333 76.62 68.3132 70.35 64.2032C63.61 59.7832 58.89 53.3732 57.09 45.4832C55.65 39.1332 56.21 31.9932 59.06 26.0932C60.92 22.2532 63.44 18.3532 66.7 15.5532C67.27 15.0632 67.89 14.5832 68.53 14.1732C68.53 14.1732 69.37 13.4232 68.8 12.4432C68.24 11.4832 67.32 11.7532 66.94 12.0032C66.2 12.5032 65.5 13.0432 64.95 13.5232C61.4 16.5632 58.67 20.7432 56.65 24.9232C53.53 31.3732 52.9 39.1332 54.48 46.0832C56.43 54.6432 61.56 61.6533 68.88 66.4433C75.69 70.9033 83.44 72.5732 91.48 71.4733C94.02 71.1232 96.54 70.5033 98.94 69.6332L99.09 69.5732C99.9 70.5632 101.21 71.0932 102.56 70.8633C104.55 70.5033 105.89 68.6032 105.53 66.6133C105.18 64.6133 103.28 63.2832 101.29 63.6332C99.58 63.9332 98.36 65.3732 98.26 67.0232ZM59.36 43.1032C57.95 33.9732 60.03 25.5532 66.87 19.1532C71.62 14.7032 78.47 11.7232 85.23 11.5332C85.5 11.5332 86.97 11.5832 87.1 12.8032C87.23 13.9632 85.71 14.1232 85.28 14.1532H85.22H85.17C79.11 14.4432 72.9 17.1732 68.7 21.1032C62.51 26.9032 60.73 34.4532 62 42.6932C63.3 51.0432 67.63 57.5033 75.31 61.1432C77.73 62.2932 80.35 63.0932 82.98 63.5432C83.97 63.7132 85.1 63.8732 86.13 63.9132C86.28 63.9132 87.7 63.9333 87.69 65.2732C87.67 66.6133 86.33 66.5932 86.33 66.5932C85.1 66.5833 83.73 66.3932 82.52 66.1833C79.65 65.6933 76.8 64.8132 74.16 63.5632C65.67 59.5432 60.78 52.3332 59.36 43.1032ZM8.45 117.803L9.78 116.233L7.79 120.733H9.19L12.02 114.343H10.31L7.87 116.983L6.68 118.393L8.47 114.343H7.08L4.26 120.733H5.86L8.45 117.803ZM13.38 106.113H18.98L26.96 81.4432H21.36L18.23 91.1332H10.44L13.58 81.4432H7.98L0 106.113H5.6L8.85 96.0632H16.63L13.38 106.113Z" fill="white"/>
</svg>
