<svg width="300" height="47" viewBox="0 0 300 47" fill="none" xmlns="http://www.w3.org/2000/svg">
<mask id="path-1-inside-1" fill="white">
<path fill-rule="evenodd" clip-rule="evenodd" d="M32 0H290C295.523 0 300 4.47715 300 10V37C300 42.5228 295.523 47 290 47H10C4.47715 47 0 42.5228 0 37L0 10C0 4.47715 4.47715 0 10 0H23.5726"/>
</mask>
<path d="M0 10H-2H0ZM32 2H290V-2H32V2ZM290 2C294.418 2 298 5.58172 298 10H302C302 3.37258 296.627 -2 290 -2V2ZM298 10V37H302V10H298ZM298 37C298 41.4183 294.418 45 290 45V49C296.627 49 302 43.6274 302 37H298ZM290 45H10V49H290V45ZM10 45C5.58172 45 2 41.4183 2 37H-2C-2 43.6274 3.37258 49 10 49V45ZM2 37V10H-2V37H2ZM2 10C2 5.58172 5.58172 2 10 2V-2C3.37258 -2 -2 3.37258 -2 10H2ZM10 2H23.5726V-2H10V2Z" fill="#4E84C5" mask="url(#path-1-inside-1)"/>
</svg>
