<svg width="125" height="47" viewBox="0 0 125 47" fill="none" xmlns="http://www.w3.org/2000/svg">
<mask id="path-1-inside-1" fill="white">
<path fill-rule="evenodd" clip-rule="evenodd" d="M32 0L115 0C120.523 0 125 4.47715 125 10V37C125 42.5228 120.523 47 115 47H10C4.47715 47 0 42.5228 0 37L0 10C0 4.47715 4.47715 0 10 0H23.5726"/>
</mask>
<path d="M0 10H-2H0ZM32 2H115V-2H32V2ZM115 2C119.418 2 123 5.58172 123 10H127C127 3.37258 121.627 -2 115 -2V2ZM123 10V37H127V10H123ZM123 37C123 41.4183 119.418 45 115 45V49C121.627 49 127 43.6274 127 37H123ZM115 45H10V49H115V45ZM10 45C5.58172 45 2 41.4183 2 37H-2C-2 43.6274 3.37258 49 10 49V45ZM2 37V10H-2V37H2ZM2 10C2 5.58172 5.58172 2 10 2V-2C3.37258 -2 -2 3.37258 -2 10H2ZM10 2H23.5726V-2H10V2Z" fill="white" mask="url(#path-1-inside-1)"/>
</svg>
