<svg width="97" height="47" viewBox="0 0 97 47" fill="none" xmlns="http://www.w3.org/2000/svg">
<mask id="path-1-inside-1" fill="white">
<path fill-rule="evenodd" clip-rule="evenodd" d="M32 0L87 0C92.5229 0 97 4.47715 97 10V37C97 42.5228 92.5229 47 87 47H10C4.47715 47 0 42.5228 0 37L0 10C0 4.47715 4.47715 0 10 0H23.5726"/>
</mask>
<path d="M0 10H-2H0ZM32 2H87V-2H32V2ZM87 2C91.4183 2 95 5.58172 95 10H99C99 3.37258 93.6274 -2 87 -2V2ZM95 10V37H99V10H95ZM95 37C95 41.4183 91.4183 45 87 45V49C93.6274 49 99 43.6274 99 37H95ZM87 45H10V49H87V45ZM10 45C5.58172 45 2 41.4183 2 37H-2C-2 43.6274 3.37258 49 10 49V45ZM2 37V10H-2V37H2ZM2 10C2 5.58172 5.58172 2 10 2V-2C3.37258 -2 -2 3.37258 -2 10H2ZM10 2H23.5726V-2H10V2Z" fill="#4F8AD1" mask="url(#path-1-inside-1)"/>
</svg>
